<?xml version="1.0" encoding="UTF-8" standalone="no"?>
<!-- Created with Inkscape (http://www.inkscape.org/) -->

<svg
   width="210mm"
   height="297mm"
   viewBox="0 0 210 297"
   version="1.1"
   id="svg5"
   xml:space="preserve"
   inkscape:version="1.2.2 (732a01da63, 2022-12-09)"
   sodipodi:docname="logo.svg"
   xmlns:inkscape="http://www.inkscape.org/namespaces/inkscape"
   xmlns:sodipodi="http://sodipodi.sourceforge.net/DTD/sodipodi-0.dtd"
   xmlns="http://www.w3.org/2000/svg"
   xmlns:svg="http://www.w3.org/2000/svg"><sodipodi:namedview
     id="namedview7"
     pagecolor="#ffffff"
     bordercolor="#000000"
     borderopacity="0.25"
     inkscape:showpageshadow="2"
     inkscape:pageopacity="0.0"
     inkscape:pagecheckerboard="0"
     inkscape:deskcolor="#d1d1d1"
     inkscape:document-units="mm"
     showgrid="false"
     inkscape:zoom="1.1662912"
     inkscape:cx="351.54171"
     inkscape:cy="533.31449"
     inkscape:window-width="1600"
     inkscape:window-height="837"
     inkscape:window-x="-8"
     inkscape:window-y="-8"
     inkscape:window-maximized="1"
     inkscape:current-layer="layer1" /><defs
     id="defs2"><rect
       x="87.456715"
       y="282.09078"
       width="643.06408"
       height="214.35469"
       id="rect8630" /><rect
       x="215.27775"
       y="244.32316"
       width="681.71287"
       height="413.46996"
       id="rect910" /></defs><g
     inkscape:label="Capa 1"
     inkscape:groupmode="layer"
     id="layer1"><text
       xml:space="preserve"
       transform="matrix(0.26458333,0,0,0.26458333,-27.501753,37.104074)"
       id="text908"
       style="font-style:italic;font-variant:normal;font-weight:normal;font-stretch:normal;font-size:96px;font-family:sans-serif;-inkscape-font-specification:'sans-serif Italic';white-space:pre;shape-inside:url(#rect910);display:inline;fill:none;stroke:#000000;stroke-width:5.80157;stroke-linejoin:bevel;stroke-dasharray:none;paint-order:markers stroke fill"><tspan
         x="215.27734"
         y="331.90598"
         id="tspan738">Chapas viaje</tspan></text><path
       style="fill:#ffff00;stroke:#000000;stroke-width:2.64595;stroke-linejoin:bevel;stroke-dasharray:none;paint-order:markers stroke fill"
       d=""
       id="path3419"
       transform="scale(0.26458333)" /><g
       id="g8768"
       transform="translate(0,-0.22685872)"><path
         style="fill:#ff6600;stroke:#000000;stroke-width:0.351533;stroke-linejoin:bevel;stroke-dasharray:none;paint-order:markers stroke fill"
         d="m 37.619497,124.42263 c -3.136122,-0.3401 -4.984221,-1.83727 -5.562314,-4.50612 -0.100341,-0.46323 -0.124862,-0.79451 -0.125587,-1.69659 -5.29e-4,-0.61653 0.03287,-1.38 0.07414,-1.69659 0.515692,-3.95586 2.498019,-6.99827 5.559026,-8.53181 2.291903,-1.14822 5.105127,-1.38598 7.669593,-0.64821 0.563491,0.16211 1.966958,0.73344 2.022515,0.82333 0.0375,0.0607 -0.082,0.72569 -0.15026,0.83613 -0.03019,0.0488 -0.174863,-0.0168 -0.463206,-0.21015 -0.84002,-0.56329 -1.947838,-1.02331 -3.055535,-1.26881 -0.696285,-0.15432 -2.597166,-0.19042 -3.330226,-0.0632 -2.761249,0.47903 -5.109128,2.44196 -6.30792,5.2737 -0.697466,1.64752 -0.984208,3.11145 -0.98547,5.0312 -5.29e-4,0.96448 0.02125,1.25441 0.1349,1.78701 0.409927,1.92112 1.513301,3.33929 3.095149,3.97823 2.097508,0.84722 5.029986,0.56978 7.574815,-0.71666 0.449609,-0.22728 0.82669,-0.41324 0.837961,-0.41324 0.02024,0 -0.03237,0.29941 -0.08686,0.4943 -0.06826,0.24418 -2.671437,1.17695 -3.871526,1.38725 -0.706204,0.12376 -2.440805,0.20408 -3.029196,0.14027 z"
         id="path5398" /></g><path
       style="fill:#ff6600;stroke:#000000;stroke-width:0.351533;stroke-linejoin:bevel;stroke-dasharray:none;paint-order:markers stroke fill"
       d="m 58.987091,120.47699 c 0.909584,-3.93324 1.082519,-4.81662 1.080915,-5.52152 -0.0021,-0.87877 -0.248904,-1.62569 -0.703842,-2.12926 -0.286808,-0.31746 -0.93441,-0.63472 -1.485273,-0.72764 -0.616979,-0.10406 -1.775303,-0.045 -2.346872,0.11975 -0.24587,0.0709 -0.457589,0.11828 -0.470488,0.10538 -0.04701,-0.047 1.060625,-0.52484 1.527937,-0.65914 0.396121,-0.11385 0.628867,-0.13821 1.328553,-0.13908 0.548746,-7.9e-4 0.955278,0.0291 1.15126,0.0843 1.41886,0.39965 2.047925,1.47624 1.854827,3.17437 -0.03903,0.34327 -0.510969,2.51951 -1.068409,4.92676 -0.549171,2.37153 -0.998492,4.32867 -0.998492,4.34919 0,0.0205 -0.159158,0.0373 -0.353679,0.0373 h -0.353679 z"
       id="path5400" /><path
       style="fill:#ff6600;stroke:#000000;stroke-width:0.351533;stroke-linejoin:bevel;stroke-dasharray:none;paint-order:markers stroke fill"
       d="m 48.920018,124.05091 c 0,-0.0344 3.835236,-16.70126 4.029308,-17.51022 0.02898,-0.12082 0.07049,-0.13633 0.36481,-0.13633 0.182658,0 0.332105,0.0214 0.332105,0.0475 0,0.0261 -0.299932,1.34583 -0.666517,2.93268 -0.366586,1.58685 -0.665999,2.93562 -0.665364,2.99728 7.94e-4,0.0732 0.181062,0.2302 0.519835,0.4526 l 0.518681,0.3405 -0.232021,0.13771 c -0.69429,0.41207 -0.993336,0.63545 -1.132779,0.84616 -0.125333,0.1894 -0.365472,1.1453 -1.251162,4.98046 -0.602832,2.61034 -1.110117,4.79379 -1.127299,4.85211 -0.02479,0.0841 -0.09922,0.10604 -0.360421,0.10604 -0.181046,0 -0.329176,-0.0209 -0.329176,-0.0465 z"
       id="path5402" /><path
       style="fill:#ff6600;stroke:#000000;stroke-width:0.351533;stroke-linejoin:bevel;stroke-dasharray:none;paint-order:markers stroke fill"
       d="m 66.825134,124.46066 c -1.210273,-0.21954 -1.997954,-0.94919 -2.214851,-2.05165 -0.151048,-0.76777 0.02278,-1.93388 0.399224,-2.67804 0.566293,-1.11948 1.960341,-2.01912 3.88166,-2.50501 1.179663,-0.29832 2.925024,-0.52024 4.841523,-0.61558 l 0.848297,-0.0422 0.369649,-0.32257 c 0.364384,-0.31797 0.370747,-0.32899 0.446797,-0.77358 0.04244,-0.24814 0.06588,-0.70873 0.05209,-1.02392 -0.02156,-0.49283 -0.05217,-0.62798 -0.219046,-0.96695 -0.353386,-0.71783 -1.039908,-1.20255 -2.018525,-1.42518 -0.339611,-0.0773 -0.743463,-0.10219 -1.660596,-0.1025 -1.096404,-2.6e-4 -1.284007,0.0154 -1.96926,0.16535 -0.416575,0.0912 -0.983009,0.23019 -1.258742,0.30892 l -0.501332,0.14316 0.03909,-0.22028 c 0.02151,-0.12115 0.05819,-0.24133 0.08154,-0.26705 0.05833,-0.0643 1.396296,-0.32143 2.264373,-0.43522 0.403535,-0.0529 1.154525,-0.0931 1.726134,-0.0924 3.261881,0.004 4.561194,0.89666 4.314049,2.96431 -0.03011,0.25188 -0.526343,2.50979 -1.102746,5.01757 l -1.048009,4.55959 h -0.325096 -0.325099 l 0.0362,-0.25752 0.0362,-0.25752 -0.484481,-0.35466 -0.484482,-0.35466 0.552392,-0.34215 c 0.810559,-0.50207 0.800778,-0.48191 1.316017,-2.71218 0.239545,-1.0369 0.435538,-1.93217 0.435538,-1.98948 0,-0.0573 -0.169857,-0.30955 -0.37746,-0.56053 l -0.37746,-0.45632 -0.728355,0.0411 c -1.654014,0.0933 -3.380727,0.32676 -4.363911,0.59009 -1.932855,0.51767 -3.094117,1.4943 -3.464631,2.9138 -0.13452,0.51537 -0.136036,1.43357 -0.0031,1.86964 0.270796,0.88821 1.007041,1.48456 2.104382,1.70453 0.505982,0.10143 1.76884,0.0789 2.324005,-0.0414 0.261763,-0.0567 0.488564,-0.0905 0.504,-0.0751 0.05242,0.0524 -0.970249,0.41348 -1.49637,0.52831 -0.617699,0.13481 -1.721292,0.19507 -2.149634,0.11737 z"
       id="path5404" /><path
       style="fill:#ff6600;stroke:#000000;stroke-width:0.351533;stroke-linejoin:bevel;stroke-dasharray:none;paint-order:markers stroke fill"
       d="m 79.049831,129.17203 c 0.01553,-0.0417 0.922964,-3.95443 2.016501,-8.69504 l 1.988248,-8.6193 h 0.348864 0.348863 l -0.05636,0.19653 c -0.031,0.10809 -0.05636,0.2267 -0.05636,0.26357 0,0.0369 0.234315,0.22298 0.520702,0.41357 l 0.520703,0.34652 -0.559591,0.34439 c -0.935588,0.5758 -0.793491,0.20898 -1.84789,4.7703 l -0.917072,3.96725 0.198715,0.43596 c 0.189341,0.41539 0.216752,0.44505 0.581091,0.62859 0.50191,0.25286 1.307505,0.53238 1.8366,0.63727 0.643964,0.12766 2.251919,0.11037 2.787261,-0.03 2.557756,-0.6705 4.349028,-3.08567 4.791258,-6.46005 0.12029,-0.91787 0.08985,-2.31937 -0.06251,-2.87815 -0.317384,-1.164 -0.935882,-1.87934 -1.94881,-2.25396 -0.559239,-0.20682 -1.642422,-0.26046 -2.355794,-0.11666 -0.852186,0.17178 -0.864423,0.1674 -0.305348,-0.1093 0.720601,-0.35665 1.188506,-0.47093 2.062533,-0.50378 1.184502,-0.0445 1.956244,0.21419 2.567762,0.86078 0.629188,0.66527 0.908947,1.49797 0.957517,2.85003 0.06621,1.84303 -0.333325,3.58702 -1.202523,5.24912 -0.839132,1.60459 -2.326431,2.9902 -3.806338,3.54608 -1.555234,0.58417 -3.406823,0.47825 -4.928032,-0.28191 -0.200101,-0.1 -0.393546,-0.18205 -0.429881,-0.18235 -0.03634,-2.7e-4 -0.314392,0.10041 -0.617903,0.22381 l -0.551841,0.22437 -0.599419,2.62389 -0.599419,2.62389 -0.354891,1.2e-4 c -0.25863,1.2e-4 -0.347226,-0.0204 -0.326636,-0.0756 z"
       id="path5406" /><path
       style="fill:#ff6600;stroke:#000000;stroke-width:0.351533;stroke-linejoin:bevel;stroke-dasharray:none;paint-order:markers stroke fill"
       d="m 97.90914,124.45654 c -1.144034,-0.19198 -1.972926,-0.92254 -2.209281,-1.94719 -0.09045,-0.39212 -0.07476,-1.2076 0.03333,-1.73195 0.54447,-2.64121 3.247212,-3.87994 9.093471,-4.16772 l 0.85827,-0.0422 0.36256,-0.34016 c 0.35349,-0.33166 0.36442,-0.35147 0.43693,-0.79205 0.0414,-0.25181 0.0613,-0.70106 0.0449,-1.01464 -0.0247,-0.47225 -0.0599,-0.62474 -0.21913,-0.94811 -0.34881,-0.70853 -1.04051,-1.19496 -2.01424,-1.41648 -0.33961,-0.0773 -0.74346,-0.10219 -1.66061,-0.1025 -1.09439,-2.6e-4 -1.286,0.0157 -1.97695,0.1653 -0.4208,0.0911 -0.989518,0.23096 -1.263828,0.31071 l -0.498747,0.145 0.03684,-0.1842 c 0.02027,-0.10131 0.03684,-0.21861 0.03684,-0.26067 0,-0.0846 1.206375,-0.335 2.332815,-0.48423 0.85912,-0.11382 2.55765,-0.11543 3.30254,-0.003 0.71851,0.10831 1.46065,0.33956 1.81872,0.56668 0.72045,0.45699 1.01918,1.22399 0.90158,2.31483 -0.0269,0.24994 -0.52057,2.50608 -1.09695,5.01365 l -1.04797,4.5592 -0.34196,2.6e-4 -0.34197,2.7e-4 0.0621,-0.24455 c 0.0341,-0.1345 0.0517,-0.25296 0.039,-0.26324 -0.0127,-0.0103 -0.23592,-0.17736 -0.49606,-0.37128 l -0.47298,-0.35257 0.20032,-0.12049 c 0.71655,-0.43101 0.94066,-0.60468 1.0872,-0.84254 0.11891,-0.19302 0.26997,-0.73621 0.59077,-2.12435 0.23706,-1.02571 0.43101,-1.90608 0.43101,-1.95632 0,-0.0502 -0.17042,-0.29725 -0.3787,-0.54889 l -0.37871,-0.45752 -0.72711,0.0395 c -1.68312,0.0914 -3.39117,0.32602 -4.43317,0.60905 -2.004844,0.54457 -3.170307,1.61295 -3.445834,3.1588 -0.109323,0.61336 -0.108318,0.9306 0.0045,1.40909 0.231613,0.98261 0.854919,1.57263 1.966759,1.86175 0.539638,0.14033 1.858055,0.13887 2.505775,-0.003 0.26177,-0.0572 0.48856,-0.0914 0.504,-0.076 0.0155,0.0155 -0.18509,0.1094 -0.44563,0.20879 -1.09306,0.41701 -2.312016,0.58185 -3.200368,0.43277 z"
       id="path5408" /><path
       style="fill:#ff6600;stroke:#000000;stroke-width:0.351533;stroke-linejoin:bevel;stroke-dasharray:none;paint-order:markers stroke fill"
       d="m 113.72381,124.42173 c -0.94838,-0.10994 -1.5439,-0.26029 -2.53472,-0.6399 -0.41782,-0.16008 -0.47085,-0.19737 -0.44344,-0.31183 0.0171,-0.0715 0.0496,-0.23205 0.0722,-0.35677 l 0.0411,-0.22677 0.49323,0.26582 c 0.64471,0.34745 1.45831,0.6662 2.13258,0.8355 0.467,0.11725 0.70125,0.13608 1.69324,0.13608 1.35187,0 1.90274,-0.10498 2.7519,-0.52443 1.12814,-0.55725 1.70531,-1.47773 1.70805,-2.72402 10e-4,-0.60355 -0.12313,-0.98914 -0.43287,-1.34102 -0.51634,-0.58659 -1.18334,-0.86884 -2.9535,-1.24984 -2.02355,-0.43553 -2.71892,-0.68796 -3.27677,-1.18952 -0.5155,-0.46348 -0.73632,-1.14527 -0.61797,-1.90806 0.28285,-1.82302 1.85215,-3.12834 4.26716,-3.54937 0.8204,-0.14302 2.44896,-0.0848 3.31052,0.11835 0.55955,0.13194 1.49414,0.42442 1.55697,0.48726 0.0319,0.0319 -0.0464,0.4928 -0.0978,0.57594 -0.0297,0.0481 -0.14786,0.0124 -0.38564,-0.11641 -1.51869,-0.82255 -3.67083,-1.09327 -5.24909,-0.66028 -1.28937,0.35373 -2.25974,1.25241 -2.49133,2.30728 -0.11872,0.54073 -0.0532,1.28869 0.1471,1.6801 0.47819,0.9343 1.22673,1.28418 3.97489,1.85797 1.88305,0.39315 2.64558,0.81527 3.00795,1.66515 0.14422,0.33821 0.16853,0.94346 0.057,1.41783 -0.42517,1.8077 -2.12476,3.07017 -4.57972,3.40184 -0.57549,0.0777 -1.68533,0.10308 -2.15104,0.0491 z"
       id="path5410" /><path
       style="fill:#ff6600;stroke:#000000;stroke-width:0.351533;stroke-linejoin:bevel;stroke-dasharray:none;paint-order:markers stroke fill"
       d="m 137.01786,124.08437 c -0.002,-0.01 -0.4744,-2.75757 -1.04958,-6.10682 l -1.04577,-6.08956 0.35979,-0.0182 c 0.19788,-0.01 0.36724,-0.01 0.37634,0 0.009,0.01 0.37513,2.29499 0.81338,5.07771 0.43825,2.78271 0.81952,5.11445 0.84726,5.18165 0.041,0.0993 0.17907,0.14733 0.73845,0.25675 0.54449,0.10651 0.7024,0.11895 0.75693,0.0596 0.0379,-0.0412 1.52077,-2.43354 3.29526,-5.31624 1.7745,-2.88269 3.23396,-5.2496 3.24324,-5.25981 0.009,-0.0102 0.15626,-0.0102 0.3266,0 l 0.30971,0.0186 -3.86995,6.08956 -3.86995,6.08956 -0.61395,0.0173 c -0.33768,0.009 -0.61567,0.009 -0.61776,0 z"
       id="path5412" /><path
       style="fill:#ff6600;stroke:#000000;stroke-width:0.351533;stroke-linejoin:bevel;stroke-dasharray:none;paint-order:markers stroke fill"
       d="m 148.53426,124.03176 c 0,-0.0568 2.56438,-11.21907 2.73767,-11.91655 l 0.064,-0.25752 h 0.32606 c 0.20178,0 0.32607,0.0261 0.32607,0.0684 0,0.0376 -0.62713,2.77912 -1.39363,6.09224 -0.7665,3.31312 -1.39363,6.03627 -1.39363,6.05146 0,0.0152 -0.14997,0.0276 -0.33326,0.0276 -0.19887,0 -0.33326,-0.0265 -0.33326,-0.0656 z"
       id="path5414" /><path
       style="fill:#ff6600;stroke:#000000;stroke-width:0.351533;stroke-linejoin:bevel;stroke-dasharray:none;paint-order:markers stroke fill"
       d="m 152.11039,107.87373 c 5.3e-4,-0.0583 0.0364,-0.24237 0.0795,-0.409 l 0.0784,-0.30296 0.50356,-0.0177 c 0.39214,-0.0138 0.49692,-2.7e-4 0.47352,0.0606 -0.0165,0.0431 -0.0651,0.2351 -0.108,0.42672 l -0.078,0.34841 h -0.4751 c -0.41252,0 -0.47494,-0.014 -0.47393,-0.10604 z"
       id="path5416" /><path
       style="fill:#ff6600;stroke:#000000;stroke-width:0.351533;stroke-linejoin:bevel;stroke-dasharray:none;paint-order:markers stroke fill"
       d="m 157.2806,124.45521 c -0.98932,-0.16528 -1.76298,-0.76348 -2.07868,-1.60725 -0.34949,-0.9341 -0.14341,-2.50117 0.44558,-3.38825 0.29637,-0.44638 0.83718,-0.9583 1.35131,-1.27913 1.40944,-0.87953 3.43499,-1.33871 6.80479,-1.5426 l 1.24215,-0.0751 0.346,-0.27727 c 0.38651,-0.30973 0.44546,-0.44263 0.52976,-1.19429 0.0612,-0.5461 -0.0113,-1.20245 -0.17347,-1.569 -0.13517,-0.30557 -0.60217,-0.83015 -0.91437,-1.0271 -0.57132,-0.36042 -1.60269,-0.57603 -2.75696,-0.57636 -0.93052,-2.6e-4 -1.59769,0.0924 -2.76588,0.3842 l -1.0087,0.25194 0.032,-0.21229 c 0.0176,-0.11677 0.0516,-0.23415 0.0756,-0.26086 0.0589,-0.0654 1.75625,-0.37912 2.53985,-0.46938 0.93413,-0.10759 2.9112,-0.0429 3.60232,0.11789 1.69845,0.39513 2.39468,1.31237 2.16763,2.85572 -0.0366,0.24903 -0.53516,2.49096 -1.10782,4.98207 l -1.04121,4.5293 h -0.32658 -0.32657 l 0.0388,-0.25864 0.0388,-0.25863 -0.49215,-0.35236 -0.49214,-0.35235 0.55431,-0.34334 c 0.82273,-0.50962 0.80643,-0.47574 1.34501,-2.79582 l 0.45678,-1.96773 -0.39888,-0.47824 -0.39889,-0.47824 -0.73109,0.0417 c -3.7094,0.21145 -5.74893,0.77716 -6.88536,1.90981 -0.72804,0.72563 -1.02604,1.468 -1.03081,2.56788 -0.003,0.70986 0.0978,1.08133 0.42103,1.5506 0.67668,0.9824 2.27297,1.36793 4.11946,0.99493 0.24509,-0.0495 0.45724,-0.0784 0.47143,-0.0642 0.0423,0.0423 -0.52726,0.26883 -1.07359,0.42709 -0.86277,0.24993 -1.86954,0.334 -2.57944,0.2154 z"
       id="path5418" /><path
       style="fill:#ff6600;stroke:#000000;stroke-width:0.351533;stroke-linejoin:bevel;stroke-dasharray:none;paint-order:markers stroke fill"
       d="m 167.18164,129.29219 c -0.55755,-0.0621 -0.55965,-0.0638 -0.49478,-0.38809 l 0.0354,-0.17705 0.40389,0.10539 c 0.50352,0.13138 1.63589,0.14453 2.19738,0.0255 1.03207,-0.21877 1.83824,-0.86353 2.31575,-1.8521 0.15293,-0.31659 0.34993,-0.82102 0.43777,-1.12096 0.0879,-0.29993 0.79539,-3.29727 1.57232,-6.66075 l 1.4126,-6.11542 -0.36744,-0.47403 -0.36743,-0.47402 h -0.95968 c -0.54241,0 -0.95968,-0.0242 -0.95968,-0.0556 0,-0.24815 -0.006,-0.24733 1.86213,-0.24733 h 1.78857 l -0.0343,0.16663 c -0.0189,0.0917 -0.73349,3.19323 -1.58808,6.89241 -1.61037,6.97069 -1.72514,7.39713 -2.21221,8.2196 -1.0432,1.76157 -2.60142,2.4278 -5.04224,2.15586 z"
       id="path5420" /><path
       style="fill:#ff6600;stroke:#000000;stroke-width:0.351533;stroke-linejoin:bevel;stroke-dasharray:none;paint-order:markers stroke fill"
       d="m 176.11999,107.90403 c 0.016,-0.0417 0.0641,-0.23253 0.10701,-0.42415 l 0.078,-0.34841 h 0.50948 c 0.4559,0 0.50642,0.0111 0.48039,0.10604 -0.016,0.0583 -0.0615,0.24918 -0.10102,0.42415 l -0.0719,0.31811 h -0.51547 c -0.38748,0 -0.50827,-0.0188 -0.48642,-0.0757 z"
       id="path5422" /><path
       style="fill:#ff6600;stroke:#000000;stroke-width:0.351533;stroke-linejoin:bevel;stroke-dasharray:none;paint-order:markers stroke fill"
       d="m 183.96978,124.39986 c -2.28264,-0.26302 -3.72636,-1.32585 -4.17295,-3.07201 -0.31703,-1.23957 -0.15028,-3.2047 0.39482,-4.65289 0.77954,-2.07105 2.42279,-3.87305 4.24067,-4.65033 1.40549,-0.60096 3.38606,-0.70504 4.66292,-0.24506 1.32255,0.47645 2.02223,1.45556 2.13424,2.98657 0.0365,0.49849 -0.0753,1.6629 -0.22792,2.37458 l -0.0625,0.29149 h -4.79782 -4.79782 l -0.36992,0.29932 -0.36991,0.29931 -0.0685,0.46057 c -0.15346,1.0318 -0.0364,2.22586 0.2965,3.02419 0.35203,0.84423 1.08527,1.62689 1.89254,2.02011 1.68899,0.82269 4.15486,0.71036 6.38655,-0.29093 0.21753,-0.0976 0.41551,-0.17745 0.43996,-0.17745 0.0954,0 -0.0163,0.37057 -0.12997,0.43144 -0.39351,0.2106 -1.8102,0.61523 -2.83422,0.8095 -0.62163,0.11793 -1.97647,0.16536 -2.61664,0.0916 z m 6.07042,-7.42477 c 0.46222,-0.39229 0.47329,-0.4293 0.48025,-1.60544 0.007,-1.17862 -0.23742,-1.90487 -0.87144,-2.58968 -0.64329,-0.69484 -1.62792,-1.04554 -2.9237,-1.04135 -1.21999,0.004 -2.25647,0.30324 -3.17282,0.91618 -1.17693,0.78723 -2.00386,1.85539 -2.4466,3.1603 l -0.1606,0.47334 0.38171,0.50829 0.38171,0.50829 3.96882,0.002 3.96881,0.002 0.39386,-0.33426 z"
       id="path5424" /><g
       id="g8765"><path
         style="fill:none;stroke:#000000;stroke-width:1.535;stroke-linejoin:bevel;stroke-dasharray:none;paint-order:markers stroke fill"
         d="m 60.688354,149.51712 c 0.483204,-4.73674 6.037692,-6.08472 9.945206,-6.44178"
         id="path1047" /><path
         style="fill:none;stroke:#000000;stroke-width:1.535;stroke-linejoin:bevel;stroke-dasharray:none;paint-order:markers stroke fill"
         d="m 57.071918,154.37671 c 2.711951,-6.12813 10.840742,-7.37935 16.510026,-4.98477 9.773656,3.12642 19.614984,6.99448 30.046596,6.70489 5.47035,0.66333 12.06055,-0.086 16.19573,4.27531 3.4754,4.78075 3.91063,11.56696 2.0414,17.03737 -3.81055,7.87161 -13.20764,10.26851 -21.23275,10.85611 -11.718332,1.20684 -23.584859,1.22795 -35.29856,0.0679 -2.882239,-0.72484 -5.697546,-3.29141 -5.324088,-6.49452"
         id="path1049" /><path
         style="fill:none;stroke:#000000;stroke-width:1.535;stroke-linejoin:bevel;stroke-dasharray:none;paint-order:markers stroke fill"
         d="m 107.36301,141.60616 c 5.58355,5.10333 -8.491751,6.00134 -5.00342,-0.39272 2.18857,-6.0302 12.13955,-3.39026 12.38699,2.61154 0.36814,5.39565 -6.40053,7.91427 -10.86495,6.88585 -7.115501,-0.46003 -10.37904,-11.36583 -4.122758,-15.26685 4.858278,-4.03092 11.935608,-2.47969 17.220378,-0.18865 6.81066,3.93577 6.53869,15.79917 -1.04624,18.7434 -5.31049,2.3794 -11.49585,1.83122 -16.954934,0.35855 -5.451135,-2.90076 -6.366928,-11.10585 -13.056464,-12.22993 -1.922393,-0.11044 -6.11257,-1.9619 -1.813239,-2.52661 4.618557,-1.00068 9.721836,1.07067 12.405357,4.94376"
         id="path1051" /><path
         style="fill:none;stroke:#000000;stroke-width:1.535;stroke-linejoin:bevel;stroke-dasharray:none;paint-order:markers stroke fill"
         d="m 132.22603,140.70205 c 4.77955,-3.06781 1.06456,-11.14091 -4.20076,-7.39432 -0.91664,0.21334 -1.81771,0.49381 -2.69308,0.83953"
         id="path1053" /><path
         style="fill:none;stroke:#000000;stroke-width:1.535;stroke-linejoin:bevel;stroke-dasharray:none;paint-order:markers stroke fill"
         d="m 121.60274,141.9452 c 2.7939,-2.73326 6.42875,-12.04176 0.17158,-12.13153 -3.02901,0.22572 -5.88107,1.62201 -8.19555,3.54249"
         id="path1055" /><path
         style="fill:none;stroke:#000000;stroke-width:1.535;stroke-linejoin:bevel;stroke-dasharray:none;paint-order:markers stroke fill"
         d="m 129.28767,136.74657 c -2.52397,1.65754 -5.04795,3.31507 -7.57192,4.97261"
         id="path1057" /><path
         style="fill:none;stroke:#000000;stroke-width:1.535;stroke-linejoin:bevel;stroke-dasharray:none;paint-order:markers stroke fill"
         d="m 121.48973,133.13013 c -0.82877,1.13014 -1.65754,2.26028 -2.48631,3.39042"
         id="path1059" /><path
         style="fill:none;stroke:#000000;stroke-width:1.535;stroke-linejoin:bevel;stroke-dasharray:none;paint-order:markers stroke fill"
         d="m 108.04109,129.40068 c -0.0753,1.09247 -0.15068,2.18493 -0.22602,3.2774"
         id="path1061" /><path
         style="fill:none;stroke:#000000;stroke-width:1.535;stroke-linejoin:bevel;stroke-dasharray:none;paint-order:markers stroke fill"
         d="m 102.50342,132.45205 c -0.30269,-5.86343 10.26662,-7.36976 9.04726,-0.54295 0.0616,0.41277 0.2132,0.76339 0.44589,1.10802"
         id="path1063" /><path
         style="fill:none;stroke:#000000;stroke-width:1.535;stroke-linejoin:bevel;stroke-dasharray:none;paint-order:markers stroke fill"
         d="m 93.010272,140.81507 c 0.461873,-3.54221 0.352017,-12.09418 5.924517,-9.86089 1.177271,0.84818 2.492981,1.43083 3.794661,2.06294"
         id="path1065" /><path
         style="fill:none;stroke:#000000;stroke-width:1.535;stroke-linejoin:bevel;stroke-dasharray:none;paint-order:markers stroke fill"
         d="m 73.119863,143.41438 c 2.74154,3.58419 -5.023982,6.76223 -2.809588,1.05661 1.402238,-4.6911 7.432957,-3.71646 11.172601,-3.88191"
         id="path1067" /><path
         style="fill:none;stroke:#000000;stroke-width:1.535;stroke-linejoin:bevel;stroke-dasharray:none;paint-order:markers stroke fill"
         d="m 96.739725,133.13013 c 0.640411,1.13014 1.280821,2.26028 1.921232,3.39042"
         id="path1069" /><path
         style="fill:none;stroke:#000000;stroke-width:1.535;stroke-linejoin:bevel;stroke-dasharray:none;paint-order:markers stroke fill"
         d="m 89.619861,144.31849 c -3.604856,1.90425 -1.023438,6.02889 -0.160199,7.66342 -1.031715,4.74725 4.803282,-0.85417 4.228692,-2.5778"
         id="path1071" /><path
         style="fill:none;stroke:#000000;stroke-width:1.535;stroke-linejoin:bevel;stroke-dasharray:none;paint-order:markers stroke fill"
         d="m 67.130135,181.95205 c -4.527133,3.02187 -12.072703,-5.74288 -4.936077,-6.39356 12.751785,1.8686 25.855459,4.27291 38.685642,1.7754 4.7749,0.002 13.49478,-7.10551 5.81847,-9.86806 -5.40847,-0.77402 -10.974065,-0.41293 -16.303566,-1.90421 -6.486341,-1.24816 -12.555475,-4.00916 -18.903863,-5.66426 -5.249633,-1.71826 -13.350953,3.80626 -16.617392,-1.83606 1.925061,-4.93592 8.341414,-3.45868 12.577974,-4.02687 8.673009,0.26395 15.971116,6.22343 24.693812,6.31841 7.230446,0.55908 15.294765,-0.99316 21.653565,3.36233 5.33548,3.72748 3.18058,12.1255 -1.83454,15.15104 -11.02494,5.35942 -23.772253,5.26839 -35.738386,4.28294 -3.014221,-0.40316 -6.165824,-0.35239 -9.095639,-1.1971 z"
         id="path1073" /><path
         style="fill:none;stroke:#000000;stroke-width:1.535;stroke-linejoin:bevel;stroke-dasharray:none;paint-order:markers stroke fill"
         d="m 56.280822,160.81849 c -1.157736,4.85371 4.107929,12.86451 8.922718,7.75117 1.722776,-2.35337 1.377484,-5.46368 1.248499,-8.20322"
         id="path1075" /><path
         style="fill:none;stroke:#000000;stroke-width:1.535;stroke-linejoin:bevel;stroke-dasharray:none;paint-order:markers stroke fill"
         d="m 64.417807,175.62329 c -1.985021,-6.30864 10.171471,-9.37568 8.747482,-1.55453 0.125541,0.89095 0.311451,1.7796 0.293614,2.68466"
         id="path1077" /><path
         style="fill:none;stroke:#000000;stroke-width:1.535;stroke-linejoin:bevel;stroke-dasharray:none;paint-order:markers stroke fill"
         d="m 81.708904,177.65753 c -2.119514,-6.69442 9.679089,-10.19449 8.594281,-1.83633 l 0.0414,0.9192 0.06637,0.91713"
         id="path1079" /><path
         style="fill:none;stroke:#000000;stroke-width:1.535;stroke-linejoin:bevel;stroke-dasharray:none;paint-order:markers stroke fill"
         d="m 97.191779,177.77055 c -1.23202,-4.49895 7.603431,-9.29761 7.571921,-2.48631"
         id="path1081" /><path
         style="fill:none;stroke:#000000;stroke-width:1.535;stroke-linejoin:bevel;stroke-dasharray:none;paint-order:markers stroke fill"
         d="m 75.154109,161.38356 c -3.68467,5.53647 6.989355,13.08814 7.12376,4.49174 l -0.117665,-0.83454 -0.11226,-0.83186"
         id="path1083" /><path
         style="fill:none;stroke:#000000;stroke-width:1.535;stroke-linejoin:bevel;stroke-dasharray:none;paint-order:markers stroke fill"
         d="m 90.636986,166.35616 c -0.672134,4.6066 7.986444,7.54885 7.345889,1.24315"
         id="path1085" /><path
         style="fill:none;stroke:#000000;stroke-width:1.535;stroke-linejoin:bevel;stroke-dasharray:none;paint-order:markers stroke fill"
         d="m 82.160958,165.67808 c -0.113014,-0.82877 -0.226028,-1.65753 -0.339042,-2.4863"
         id="path1087" /><path
         style="fill:none;stroke:#000000;stroke-width:1.535;stroke-linejoin:bevel;stroke-dasharray:none;paint-order:markers stroke fill"
         d="m 122.61986,142.05822 c 5.64189,-2.17934 12.0286,-0.80466 17.18797,2.01014 2.57247,5.03458 -1.68355,10.21547 -5.69363,12.92877 -3.77747,2.65494 -8.31693,4.35196 -12.96352,4.38643"
         id="path1089" /><path
         style="fill:none;stroke:#000000;stroke-width:1.535;stroke-linejoin:bevel;stroke-dasharray:none;paint-order:markers stroke fill"
         d="m 122.05479,142.51027 c 0.86644,-0.30137 1.73288,-0.60274 2.59932,-0.90411"
         id="path1091" /><path
         style="fill:none;stroke:#000000;stroke-width:1.535;stroke-linejoin:bevel;stroke-dasharray:none;paint-order:markers stroke fill"
         d="m 88.263697,189.18493 c -1.068328,3.94103 2.546147,9.90866 6.987903,8.56023 2.719959,-1.91262 2.528845,-5.72929 2.392235,-8.67325"
         id="path1093" /><path
         style="fill:none;stroke:#000000;stroke-width:1.535;stroke-linejoin:bevel;stroke-dasharray:none;paint-order:markers stroke fill"
         d="m 93.349314,194.38356 c -0.113014,-1.92123 -0.226028,-3.84247 -0.339042,-5.7637"
         id="path1095" /><path
         style="fill:none;stroke:#000000;stroke-width:1.535;stroke-linejoin:bevel;stroke-dasharray:none;paint-order:markers stroke fill"
         d="m 104.08562,188.39383 c 0.82877,2.4863 1.65753,4.97261 2.4863,7.45891"
         id="path1097" /><path
         style="fill:none;stroke:#000000;stroke-width:1.535;stroke-linejoin:bevel;stroke-dasharray:none;paint-order:markers stroke fill"
         d="m 97.982875,189.07191 c 1.461209,4.95457 4.700745,13.73461 11.081445,12.16878 3.83191,-3.24806 2.14605,-9.04431 1.3373,-13.33262 -0.0711,-0.25246 -0.14217,-0.50493 -0.21326,-0.75739"
         id="path1099" /><path
         style="fill:none;stroke:#000000;stroke-width:1.535;stroke-linejoin:bevel;stroke-dasharray:none;paint-order:markers stroke fill"
         d="m 121.94178,178.56164 c 4.62261,4.58394 9.25774,10.19962 9.3666,17.04212 -5.89496,2.82103 -12.24087,-0.92828 -16.98472,-4.34925 -1.2903,-1.03295 -2.46818,-2.21263 -3.45725,-3.53878"
         id="path1101" /><path
         style="fill:none;stroke:#000000;stroke-width:1.535;stroke-linejoin:bevel;stroke-dasharray:none;paint-order:markers stroke fill"
         d="m 117.42123,183.87329 c 3.23973,2.93835 6.47945,5.87671 9.71918,8.81506"
         id="path1103" /><path
         style="fill:none;stroke:#000000;stroke-width:1.535;stroke-linejoin:bevel;stroke-dasharray:none;paint-order:markers stroke fill"
         d="m 111.88356,196.19178 c 2.94328,3.22506 6.30325,1.77033 5.08558,-2.71233"
         id="path1105" /><path
         style="fill:none;stroke:#000000;stroke-width:1.535;stroke-linejoin:bevel;stroke-dasharray:none;paint-order:markers stroke fill"
         d="m 110.97945,188.16781 c -0.0565,-0.30137 -0.28253,-1.50685 -0.33904,-1.80822"
         id="path1107" /><path
         style="fill:none;stroke:#000000;stroke-width:1.535;stroke-linejoin:bevel;stroke-dasharray:none;paint-order:markers stroke fill"
         d="m 111.65753,190.31507 c 0.82877,1.31849 1.65753,2.63699 2.4863,3.95548"
         id="path1109" /><path
         style="fill:none;stroke:#000000;stroke-width:1.535;stroke-linejoin:bevel;stroke-dasharray:none;paint-order:markers stroke fill"
         d="m 137.08562,155.16781 c 5.40659,-1.33301 9.42064,7.58833 2.40208,7.98612 l -0.14181,0.0378"
         id="path1111" /><path
         style="fill:none;stroke:#000000;stroke-width:1.535;stroke-linejoin:bevel;stroke-dasharray:none;paint-order:markers stroke fill"
         d="m 130.30479,159.91438 c 3.42808,-0.11301 6.85617,-0.22603 10.28425,-0.33904"
         id="path1113" /><path
         style="fill:none;stroke:#000000;stroke-width:1.535;stroke-linejoin:bevel;stroke-dasharray:none;paint-order:markers stroke fill"
         d="m 126.12329,160.59246 c 5.72898,-0.44765 11.88385,1.33318 15.79899,5.70177 5.52001,2.65769 0.48424,8.94556 -3.6196,9.92318 -5.00126,1.32236 -10.19685,1.45008 -15.34378,1.32708"
         id="path1115" /><path
         style="fill:none;stroke:#000000;stroke-width:1.535;stroke-linejoin:bevel;stroke-dasharray:none;paint-order:markers stroke fill"
         d="m 128.15753,185.45548 c 5.13091,2.47943 9.82093,-4.41097 4.63357,-7.79795"
         id="path1117" /><path
         style="fill:none;stroke:#000000;stroke-width:1.535;stroke-linejoin:bevel;stroke-dasharray:none;paint-order:markers stroke fill"
         d="m 123.18493,168.72945 c 4.36986,0.33904 8.73973,0.67808 13.10959,1.01712"
         id="path1119" /><path
         style="fill:none;stroke:#000000;stroke-width:1.535;stroke-linejoin:bevel;stroke-dasharray:none;paint-order:markers stroke fill"
         d="m 122.28082,178.2226 c 2.71233,1.13014 5.42466,2.26027 8.13699,3.39041"
         id="path1121" /><path
         style="fill:none;stroke:#000000;stroke-width:1.535;stroke-linejoin:bevel;stroke-dasharray:none;paint-order:markers stroke fill"
         d="m 141.38013,147.36986 c 5.12621,0.17137 7.11799,7.98705 2.59972,10.50988"
         id="path1123" /><path
         style="fill:none;stroke:#000000;stroke-width:1.535;stroke-linejoin:bevel;stroke-dasharray:none;paint-order:markers stroke fill"
         d="m 142.7363,166.13013 c 0.41919,-1.35273 0.4504,-2.86403 -0.11301,-4.1815"
         id="path1125" /><path
         style="fill:none;stroke:#000000;stroke-width:1.535;stroke-linejoin:bevel;stroke-dasharray:none;paint-order:markers stroke fill"
         d="m 131.54794,192.34931 c 4.358,0.43661 9.05376,3.44866 13.24545,0.91032 5.04863,-4.99143 -3.22714,-10.6915 -2.37184,-16.277 0.1551,-1.25933 0.72763,-2.41674 1.10584,-3.61962"
         id="path1127" /><path
         style="fill:none;stroke:#000000;stroke-width:1.535;stroke-linejoin:bevel;stroke-dasharray:none;paint-order:markers stroke fill"
         d="m 146.23973,149.74315 c 4.2391,-0.6032 9.23925,-3.01729 13.06393,-0.0106 3.67903,4.37222 -2.39841,8.96397 -2.68536,13.50557 -0.20128,4.55936 5.30176,8.28831 0.89369,12.70738 -3.13474,5.65042 5.47455,11.00793 1.89418,16.61122 -3.16249,3.33219 -8.12604,1.94395 -11.70141,0.13523 l -0.61889,-0.23765 -0.62012,-0.218"
         id="path1129" /><path
         style="fill:none;stroke:#000000;stroke-width:1.535;stroke-linejoin:bevel;stroke-dasharray:none;paint-order:markers stroke fill"
         d="m 111.99657,155.73287 c 7.64726,-2.78767 15.29453,-5.57534 22.94179,-8.36301"
         id="path1131" /><path
         style="fill:#000000;stroke:#000000;stroke-width:1.31131;stroke-linejoin:bevel;stroke-dasharray:none;paint-order:markers stroke fill"
         d="m 90.792153,151.32515 c -3.873873,-1.86476 -0.811296,-8.81522 1.377537,-3.35816 0.305012,1.04929 0.641225,4.74719 -1.377537,3.35816 z"
         id="path1202" /><path
         style="fill:#000000;stroke:#000000;stroke-width:1.535;stroke-linejoin:bevel;stroke-dasharray:none;paint-order:markers stroke fill"
         d="m 89.506847,154.15068 c 0.527395,-1.13014 1.054798,-2.26027 1.582193,-3.39041"
         id="path1204" /><ellipse
         style="fill:#000000;stroke:#000000;stroke-width:1.26695;stroke-linejoin:bevel;stroke-dasharray:none;paint-order:markers stroke fill"
         id="path1258"
         cx="113.02116"
         cy="133.18941"
         rx="0.72679579"
         ry="0.23282214" /><ellipse
         style="fill:#000000;stroke:#000000;stroke-width:0.868781;stroke-linejoin:bevel;stroke-dasharray:none;paint-order:markers stroke fill"
         id="path1258-2"
         cx="102.58145"
         cy="132.6944"
         rx="0.36133885"
         ry="0.22020346" /><ellipse
         style="fill:#000000;stroke:#000000;stroke-width:0.933501;stroke-linejoin:bevel;stroke-dasharray:none;paint-order:markers stroke fill"
         id="path1258-0"
         cx="87.550972"
         cy="135.80902"
         rx="0.29383823"
         ry="0.31263611"
         transform="rotate(10.774032)"
         inkscape:transform-center-x="1.2862744"
         inkscape:transform-center-y="-3.9109694" /><ellipse
         style="fill:#000000;stroke:#000000;stroke-width:1.17055;stroke-linejoin:bevel;stroke-dasharray:none;paint-order:markers stroke fill"
         id="path1258-26"
         cx="66.07682"
         cy="151.11534"
         rx="0.39258742"
         ry="0.36793008"
         inkscape:transform-center-x="-0.68984629"
         inkscape:transform-center-y="-5.6277299"
         transform="rotate(3.3806015)" /><ellipse
         style="fill:#000000;stroke:#000000;stroke-width:0.911551;stroke-linejoin:bevel;stroke-dasharray:none;paint-order:markers stroke fill"
         id="path1258-3"
         cx="56.326649"
         cy="160.70607"
         rx="0.3569597"
         ry="0.24539194" /><ellipse
         style="fill:#000000;stroke:#000000;stroke-width:0.843562;stroke-linejoin:bevel;stroke-dasharray:none;paint-order:markers stroke fill"
         id="path1258-1"
         cx="97.948059"
         cy="167.58939"
         rx="0.33011663"
         ry="0.22723992" /><ellipse
         style="fill:#000000;stroke:#000000;stroke-width:1.09165;stroke-linejoin:bevel;stroke-dasharray:none;paint-order:markers stroke fill"
         id="path1258-7"
         cx="104.7966"
         cy="175.65466"
         rx="0.36251223"
         ry="0.34654593" /><ellipse
         style="fill:#000000;stroke:#000000;stroke-width:1.29927;stroke-linejoin:bevel;stroke-dasharray:none;paint-order:markers stroke fill"
         id="path1258-8"
         cx="60.078362"
         cy="181.26755"
         rx="0.3173236"
         ry="0.56080937" /><ellipse
         style="fill:#000000;stroke:#000000;stroke-width:1.12584;stroke-linejoin:bevel;stroke-dasharray:none;paint-order:markers stroke fill"
         id="path1258-19"
         cx="122.3525"
         cy="177.36679"
         rx="0.57138562"
         ry="0.23385075" /><ellipse
         style="fill:#000000;stroke:#000000;stroke-width:0.968393;stroke-linejoin:bevel;stroke-dasharray:none;paint-order:markers stroke fill"
         id="path1258-9"
         cx="117.13787"
         cy="183.79819"
         rx="0.40675801"
         ry="0.24304397" /><ellipse
         style="fill:#000000;stroke:#000000;stroke-width:0.854849;stroke-linejoin:bevel;stroke-dasharray:none;paint-order:markers stroke fill"
         id="path1258-25"
         cx="111.81896"
         cy="196.10469"
         rx="0.39400157"
         ry="0.19552338" /><ellipse
         style="fill:#000000;stroke:#000000;stroke-width:0.535422;stroke-linejoin:bevel;stroke-dasharray:none;paint-order:markers stroke fill"
         id="path1258-08"
         cx="116.61641"
         cy="193.53215"
         rx="0.20607346"
         ry="0.14665195" /><ellipse
         style="fill:#000000;stroke:#000000;stroke-width:1.26695;stroke-linejoin:bevel;stroke-dasharray:none;paint-order:markers stroke fill"
         id="path1258-01"
         cx="111.9754"
         cy="189.84714"
         rx="0.72679579"
         ry="0.23282214" /><ellipse
         style="fill:#000000;stroke:#000000;stroke-width:0.810924;stroke-linejoin:bevel;stroke-dasharray:none;paint-order:markers stroke fill"
         id="path1258-6"
         cx="132.53841"
         cy="177.66229"
         rx="0.34643576"
         ry="0.20010382" /><ellipse
         style="fill:#000000;stroke:#000000;stroke-width:1.26695;stroke-linejoin:bevel;stroke-dasharray:none;paint-order:markers stroke fill"
         id="path1258-262"
         cx="131.82574"
         cy="192.3154"
         rx="0.72679579"
         ry="0.23282214" /><ellipse
         style="fill:#000000;stroke:#000000;stroke-width:1.26695;stroke-linejoin:bevel;stroke-dasharray:none;paint-order:markers stroke fill"
         id="path1258-77"
         cx="179.79195"
         cy="136.18147"
         rx="0.72679579"
         ry="0.23282214"
         transform="rotate(18.205578)" /><ellipse
         style="fill:#000000;stroke:#000000;stroke-width:1.26695;stroke-linejoin:bevel;stroke-dasharray:none;paint-order:markers stroke fill"
         id="path1258-193"
         cx="105.79137"
         cy="172.06667"
         rx="0.72679579"
         ry="0.23282214"
         transform="rotate(-5.3703491)"
         inkscape:transform-center-x="-4.9017483"
         inkscape:transform-center-y="-1.4948594" /><ellipse
         style="fill:#000000;stroke:#000000;stroke-width:1.26695;stroke-linejoin:bevel;stroke-dasharray:none;paint-order:markers stroke fill"
         id="path1258-95"
         cx="111.66252"
         cy="155.91731"
         rx="0.72679579"
         ry="0.23282214"
         inkscape:transform-center-x="-6.9875986"
         inkscape:transform-center-y="2.016322" /><ellipse
         style="fill:#000000;stroke:#000000;stroke-width:0.823403;stroke-linejoin:bevel;stroke-dasharray:none;paint-order:markers stroke fill"
         id="path1258-5"
         cx="136.87218"
         cy="155.37224"
         rx="0.49665949"
         ry="0.14390765" /><ellipse
         style="fill:#000000;stroke:#000000;stroke-width:1.26695;stroke-linejoin:bevel;stroke-dasharray:none;paint-order:markers stroke fill"
         id="path1258-07"
         cx="139.35768"
         cy="163.25241"
         rx="0.72679579"
         ry="0.23282214" /><ellipse
         style="fill:#000000;stroke:#000000;stroke-width:1.26695;stroke-linejoin:bevel;stroke-dasharray:none;paint-order:markers stroke fill"
         id="path1258-33"
         cx="143.42487"
         cy="157.88599"
         rx="0.72679579"
         ry="0.23282214" /><ellipse
         style="fill:#000000;stroke:#000000;stroke-width:0.809963;stroke-linejoin:bevel;stroke-dasharray:none;paint-order:markers stroke fill"
         id="path1258-28"
         cx="116.08433"
         cy="165.87914"
         rx="0.3339133"
         ry="0.20711635" /><ellipse
         style="fill:#000000;stroke:#000000;stroke-width:0.562;stroke-linejoin:bevel;stroke-dasharray:none;paint-order:markers stroke fill"
         id="path1258-38"
         cx="143.84854"
         cy="173.39215"
         rx="0.31667289"
         ry="0.10514287" /><ellipse
         style="fill:#000000;stroke:#000000;stroke-width:1.26695;stroke-linejoin:bevel;stroke-dasharray:none;paint-order:markers stroke fill"
         id="path1258-85"
         cx="-176.72752"
         cy="138.58997"
         rx="0.72679579"
         ry="0.23282214"
         transform="rotate(-91.641089)" /><ellipse
         style="fill:#000000;stroke:#000000;stroke-width:1.26695;stroke-linejoin:bevel;stroke-dasharray:none;paint-order:markers stroke fill"
         id="path1258-16"
         cx="146.45193"
         cy="192.46402"
         rx="0.72679579"
         ry="0.23282214" /><ellipse
         style="fill:#000000;stroke:#000000;stroke-width:1.26695;stroke-linejoin:bevel;stroke-dasharray:none;paint-order:markers stroke fill"
         id="path1258-51"
         cx="146.0403"
         cy="149.83653"
         rx="0.72679579"
         ry="0.23282214" /><ellipse
         style="fill:#000000;stroke:#000000;stroke-width:2.87603;stroke-linejoin:bevel;stroke-dasharray:none;paint-order:markers stroke fill"
         id="path1258-21"
         cx="89.717796"
         cy="146.43248"
         rx="1.0686178"
         ry="0.81598324" /><ellipse
         style="fill:#000000;stroke:#000000;stroke-width:1.26695;stroke-linejoin:bevel;stroke-dasharray:none;paint-order:markers stroke fill"
         id="path1258-78"
         cx="92.432861"
         cy="149.14755"
         rx="0.72679579"
         ry="0.23282214" /><ellipse
         style="fill:#000000;stroke:#000000;stroke-width:1.26695;stroke-linejoin:bevel;stroke-dasharray:none;paint-order:markers stroke fill"
         id="path1258-52"
         cx="131.8918"
         cy="140.70067"
         rx="0.72679579"
         ry="0.23282214" /><ellipse
         style="fill:#000000;stroke:#000000;stroke-width:1.26695;stroke-linejoin:bevel;stroke-dasharray:none;paint-order:markers stroke fill"
         id="path1258-35"
         cx="81.331268"
         cy="140.70067"
         rx="0.72679579"
         ry="0.23282214" /><ellipse
         style="fill:#000000;stroke:#000000;stroke-width:0.764589;stroke-linejoin:bevel;stroke-dasharray:none;paint-order:markers stroke fill"
         id="path1258-00"
         cx="96.414955"
         cy="144.5621"
         rx="0.25396016"
         ry="0.24266461" /><path
         style="fill:#008000;stroke:#000000;stroke-width:2.64595;stroke-linejoin:bevel;stroke-dasharray:none;paint-order:markers stroke fill"
         d="m 465.08495,667.65773 c -0.1443,-0.1443 -0.0694,-0.91392 0.16641,-1.71027 1.04921,-3.54303 2.27807,-12.4778 2.53965,-18.46523 l 0.28519,-6.52762 2.77823,0.27022 c 2.91321,0.28335 43.36822,3.43551 44.09154,3.43551 0.22959,0 0.41744,-1.43664 0.41744,-3.19252 0,-3.13598 -0.021,-3.19252 -1.1886,-3.19252 -1.4385,0 -41.40513,-3.07603 -44.69213,-3.43972 l -2.32567,-0.25733 -0.57977,-3.28231 c -0.74859,-4.23807 -2.45565,-10.14625 -4.16603,-14.41875 -0.94241,-2.3541 -1.19826,-3.47968 -0.84114,-3.70039 0.28228,-0.17446 2.08568,-0.45079 4.00755,-0.61406 1.92186,-0.16327 5.44401,-0.73525 7.827,-1.27107 18.79959,-4.22715 43.09469,2.56211 57.12338,15.96312 2.06936,1.97677 4.68602,4.16164 5.81481,4.85526 4.41603,2.71362 5.92916,5.06821 5.92859,9.22558 -9.1e-4,6.64512 -7.08179,15.53452 -15.73418,19.75281 -5.79669,2.82606 -18.85631,5.32839 -33.15082,6.35199 -7.05806,0.50542 -27.85367,0.66509 -28.30145,0.2173 z"
         id="path2454"
         transform="scale(0.26458333)" /><path
         style="fill:#008000;stroke:#000000;stroke-width:2.64595;stroke-linejoin:bevel;stroke-dasharray:none;paint-order:markers stroke fill"
         d="m 455.8693,604.93566 c -1.57077,-2.3736 -6.29656,-6.19965 -10.79724,-8.74156 -3.3395,-1.8861 -8.63329,-3.85181 -14.68489,-5.45285 l -2.19885,-0.58173 41.19316,-14.98716 c 22.65624,-8.24294 41.34084,-15.12228 41.52135,-15.28742 0.23984,-0.21943 -1.08919,-4.82131 -1.69221,-5.85942 -0.0333,-0.0573 -12.14417,4.30392 -26.9131,9.69157 -14.76892,5.38765 -27.0186,9.79573 -27.2215,9.79573 -0.2029,0 0.35179,-1.00316 1.23265,-2.22925 2.08398,-2.90075 4.4987,-8.16198 5.64561,-12.30075 1.18253,-4.26731 2.05112,-11.80884 1.74671,-15.16591 l -0.23944,-2.64058 3.71733,-1.2192 c 2.04453,-0.67056 4.33303,-1.58743 5.08555,-2.03749 2.97751,-1.78075 15.74608,-2.38836 23.94388,-1.13939 8.71084,1.32713 18.06544,4.28074 25.9959,8.20793 3.68589,1.82527 3.91799,2.02974 4.7247,4.16231 1.20656,3.18962 1.47293,9.25357 0.57424,13.07283 -3.14032,13.34575 -17.21253,27.49966 -36.32088,36.53174 -5.51411,2.60639 -11.72835,4.85863 -13.40562,4.85863 -0.5484,0 -1.19206,0.19229 -1.43036,0.42731 -0.80493,0.79386 -9.71213,2.31749 -14.52929,2.48533 l -4.78472,0.1667 z"
         id="path2456"
         transform="scale(0.26458333)" /><path
         style="fill:#00ff00;stroke:#000000;stroke-width:2.64595;stroke-linejoin:bevel;stroke-dasharray:none;paint-order:markers stroke fill"
         d="m 473.67131,739.50518 c -15.55588,-2.4425 -38.86784,-16.00452 -49.59385,-28.85184 -2.46245,-2.94945 -2.68715,-3.78773 -1.18302,-4.41331 5.69554,-2.36884 11.67248,-5.19893 14.48035,-6.85647 1.8813,-1.11056 3.69617,-1.96071 4.03303,-1.88921 0.33686,0.0715 8.64881,7.42584 18.47099,16.34299 9.82218,8.91714 18.1352,16.32184 18.47337,16.4549 0.62154,0.24455 4.14213,-3.35761 4.1271,-4.22273 -0.005,-0.25084 -8.06134,-7.73798 -17.90441,-16.6381 l -17.8965,-16.18203 4.38636,-4.34129 c 2.41249,-2.38771 5.36998,-5.73301 6.57218,-7.434 1.87992,-2.65987 2.28513,-3.01093 2.89535,-2.50841 1.41266,1.16336 10.32522,11.11753 13.56653,15.15206 7.2936,9.07851 13.32962,19.68755 16.13976,28.36762 1.44895,4.47554 3.07629,13.32082 2.65347,14.42267 -0.72157,1.88039 -13.1178,3.5554 -19.22071,2.59715 z"
         id="path2458"
         transform="scale(0.26458333)" /><path
         style="fill:#00ff00;stroke:#000000;stroke-width:2.64595;stroke-linejoin:bevel;stroke-dasharray:none;paint-order:markers stroke fill"
         d="m 454.5283,603.33993 c -4.86822,-5.33832 -12.41561,-9.55409 -21.60373,-12.06728 -2.07136,-0.56656 -3.70001,-1.09623 -3.61921,-1.17703 0.0808,-0.0808 13.06338,-4.8521 28.85017,-10.60289 40.91422,-14.90416 52.29226,-19.12481 52.72596,-19.55851 0.38477,-0.38477 -0.77393,-5.03276 -1.42568,-5.71896 -0.19354,-0.20378 -2.38116,0.34223 -4.86138,1.21335 -6.98473,2.45322 -46.33377,16.68911 -47.55339,17.2041 -0.5968,0.252 -1.14408,0.3992 -1.21618,0.32709 -0.0721,-0.0721 0.65011,-1.4299 1.60489,-3.01733 2.14293,-3.56288 4.3558,-9.0862 5.28005,-13.17901 0.38376,-1.69942 0.82,-5.8605 0.96942,-9.24685 l 0.27166,-6.15699 4.61285,-1.76651 c 2.53707,-0.97158 5.84425,-2.05025 7.34929,-2.39705 3.81825,-0.87981 15.76923,-0.86697 21.22207,0.0228 8.35745,1.36372 18.31408,4.57036 25.14659,8.09872 3.03825,1.56898 3.60187,2.05672 4.29066,3.71292 1.0395,2.49952 1.40047,9.65972 0.65712,13.03439 -2.41906,10.98197 -13.30121,23.32324 -28.60312,32.43835 -5.47923,3.26389 -14.58736,7.33007 -18.87158,8.42491 -1.61127,0.41177 -3.77396,1.03042 -4.80596,1.37478 -2.56146,0.8547 -11.43474,2.05445 -14.90002,2.01462 l -2.83478,-0.0326 z"
         id="path2598"
         transform="scale(0.26458333)" /><path
         style="fill:#00ff00;stroke:#000000;stroke-width:2.64595;stroke-linejoin:bevel;stroke-dasharray:none;paint-order:markers stroke fill"
         d="m 465.40238,666.25801 c 1.19255,-4.70428 1.73698,-9.01849 2.81293,-22.29055 l 0.22256,-2.74521 18.1039,1.46046 c 9.95715,0.80325 20.5154,1.6059 23.46277,1.78365 l 5.35887,0.32319 v -3.23646 -3.23646 l -1.48224,-0.21805 c -0.81523,-0.11994 -11.53867,-0.96922 -23.82986,-1.8873 -12.29119,-0.91807 -22.4099,-1.72957 -22.48603,-1.80332 -0.0761,-0.0738 -0.66194,-2.46241 -1.3018,-5.30813 -0.63986,-2.84572 -1.98112,-7.50268 -2.98056,-10.34881 -0.99945,-2.84612 -1.74766,-5.24295 -1.66268,-5.32629 0.085,-0.0833 2.41206,-0.47529 5.17131,-0.87102 2.75925,-0.39572 6.65868,-1.02271 8.6654,-1.39329 4.72375,-0.87235 14.83239,-0.88714 20.06725,-0.0294 13.47799,2.20847 25.35666,7.7507 34.66161,16.17204 2.00672,1.81617 4.77737,4.08148 6.157,5.03403 4.4327,3.06053 5.53737,4.84107 5.53779,8.92605 9.2e-4,7.41697 -7.92899,16.59239 -17.72464,20.50893 -3.54059,1.41562 -12.12661,3.29431 -20.1944,4.4187 -5.22967,0.72885 -9.98901,0.96851 -22.7512,1.14562 l -16.13814,0.22397 z"
         id="path2600"
         transform="scale(0.26458333)" /><path
         style="fill:#008000;stroke:#000000;stroke-width:2.64595;stroke-linejoin:bevel;stroke-dasharray:none;paint-order:markers stroke fill"
         d="m 350.88436,744.18085 c -7.95577,-2.83254 -14.75796,-13.60958 -14.75796,-23.38176 v -3.02646 l 5.96653,-0.30197 c 3.2816,-0.16609 6.12711,-0.20274 6.32337,-0.0814 0.19625,0.12129 0.49759,3.45799 0.66963,7.41489 0.17204,3.9569 0.42787,7.86137 0.5685,8.6766 l 0.2557,1.48224 h 2.97745 2.97746 l -0.31128,-6.95512 c -0.1712,-3.82532 -0.42872,-7.90863 -0.57226,-9.07402 l -0.26099,-2.11888 4.76055,-0.32448 c 7.15159,-0.48746 6.52695,-1.14935 6.46699,6.85272 -0.0748,9.98716 -1.83725,15.91288 -5.9055,19.85599 -1.33483,1.29377 -1.9353,1.53239 -4.18588,1.66348 -1.73362,0.10098 -3.42521,-0.13097 -4.97231,-0.68179 z"
         id="path2602"
         transform="scale(0.26458333)" /><path
         style="fill:#008000;stroke:#000000;stroke-width:2.64595;stroke-linejoin:bevel;stroke-dasharray:none;paint-order:markers stroke fill"
         d="m 401.27938,757.19424 c -7.67279,-2.68593 -13.97506,-9.72239 -19.96233,-22.28784 -2.40869,-5.05509 -6.31482,-15.08984 -7.11516,-18.27867 -0.35056,-1.39673 -0.45801,-1.37088 9.12815,-2.19559 3.01009,-0.25896 5.88851,-0.56078 6.3965,-0.6707 0.83861,-0.18147 1.33685,1.04723 5.41399,13.35129 2.4697,7.45313 4.63006,13.70537 4.80078,13.89387 0.17073,0.1885 1.56267,-0.0802 3.0932,-0.59704 l 2.7828,-0.93976 -4.45395,-13.34513 -4.45394,-13.34514 3.24393,-0.55112 c 1.78417,-0.30312 5.46887,-1.08075 8.18824,-1.72807 2.74114,-0.6525 5.11394,-1.00237 5.325,-0.78518 0.54503,0.56087 3.48275,15.92531 4.12972,21.59867 1.23873,10.86247 -0.61077,19.06954 -5.58788,24.79595 -1.45966,1.67941 -1.68501,1.7728 -4.71595,1.95443 -2.51045,0.15042 -3.82331,-0.0334 -6.2131,-0.86997 z"
         id="path2604"
         transform="scale(0.26458333)" /><path
         style="fill:#008000;stroke:#000000;stroke-width:2.64595;stroke-linejoin:bevel;stroke-dasharray:none;paint-order:markers stroke fill"
         d="m 431.21779,743.93787 c -1.2542,-0.60412 -3.23691,-1.94839 -4.40602,-2.98726 l -2.12566,-1.88887 -0.28641,-3.98771 c -0.15753,-2.19324 -0.39332,-4.70602 -0.52399,-5.58396 -0.2129,-1.43043 -0.0166,-1.2409 1.88938,1.82429 3.15147,5.06814 2.91409,4.93625 5.75847,3.19942 1.33687,-0.81631 2.49603,-1.54212 2.5759,-1.6129 0.0799,-0.0708 -0.89499,-1.78847 -2.16635,-3.81709 -1.27137,-2.02863 -2.31158,-3.78415 -2.31158,-3.90115 0,-0.11701 2.04057,1.22734 4.53459,2.98743 5.14658,3.63206 5.63318,4.45426 5.63318,9.51833 0,3.00689 -0.73496,5.19138 -2.13852,6.35623 -1.3344,1.10745 -4.00418,1.06315 -6.43299,-0.10676 z"
         id="path2606"
         transform="scale(0.26458333)" /><path
         style="fill:#008000;stroke:#000000;stroke-width:2.64595;stroke-linejoin:bevel;stroke-dasharray:none;paint-order:markers stroke fill"
         d="m 490.05131,699.55988 c -3.85652,-0.98466 -5.50271,-2.1243 -7.98129,-5.52535 -1.37962,-1.89309 -4.28558,-5.51609 -6.45769,-8.05111 -2.17211,-2.53503 -3.88936,-4.67058 -3.81612,-4.74566 0.0732,-0.0751 4.60046,1.72421 10.06049,3.99843 5.46002,2.27423 9.98025,4.08014 10.04495,4.01315 0.30909,-0.32005 2.47636,-5.52469 2.35223,-5.64881 -0.0781,-0.0781 -5.05763,-2.19488 -11.06569,-4.70402 l -10.92376,-4.56208 5.92896,-0.0154 c 3.26093,-0.008 9.29183,-0.23683 13.402,-0.50744 l 7.47304,-0.49202 1.87647,1.34394 c 2.48971,1.78315 5.08616,5.24081 5.77026,7.68417 2.22597,7.95039 -4.48329,16.76736 -13.15601,17.28897 -1.42763,0.0859 -3.00616,0.0513 -3.50784,-0.0768 z"
         id="path2608"
         transform="scale(0.26458333)" /><path
         style="fill:#008000;stroke:#000000;stroke-width:2.64595;stroke-linejoin:bevel;stroke-dasharray:none;paint-order:markers stroke fill"
         d="m 519.11951,611.79148 c -2.32386,-1.17416 -5.91544,-2.76322 -7.98129,-3.53125 l -3.7561,-1.3964 4.60191,-0.0288 c 2.53106,-0.0158 8.04762,-0.16471 12.25902,-0.3308 l 7.65711,-0.30199 -0.27599,-2.95544 c -0.15179,-1.62549 -0.35507,-3.03453 -0.45173,-3.13119 -0.0967,-0.0967 -5.38641,0.0324 -11.755,0.28685 -6.36858,0.25443 -13.10906,0.46534 -14.97883,0.4687 l -3.39958,0.006 3.18523,-1.96383 c 3.57301,-2.2029 7.5617,-5.05993 10.8026,-7.7377 2.16142,-1.78585 2.19211,-1.7948 6.38503,-1.86141 3.8132,-0.0606 4.47297,0.0605 6.94962,1.27558 3.34559,1.64138 6.58642,4.87709 8.21139,8.19841 3.90228,7.97597 0.47009,13.6253 -8.8955,14.64187 -1.37962,0.14975 -2.91887,0.32264 -3.42055,0.38422 -0.50168,0.0616 -2.81349,-0.84874 -5.13734,-2.02291 z"
         id="path2610"
         transform="scale(0.26458333)" /><path
         style="fill:#008000;stroke:#000000;stroke-width:2.64595;stroke-linejoin:bevel;stroke-dasharray:none;paint-order:markers stroke fill"
         d="m 474.09868,530.25613 c 0.24537,-0.2263 3.9864,-2.71619 8.3134,-5.53308 4.327,-2.81689 7.86727,-5.31988 7.86727,-5.5622 0,-0.33835 -2.10086,-3.73055 -3.02802,-4.88925 -0.0791,-0.0988 -3.6374,2.09825 -7.90739,4.88237 -4.26999,2.78412 -7.76362,4.96453 -7.76362,4.84536 0,-0.11917 0.52349,-1.49531 1.1633,-3.05808 0.63981,-1.56277 1.67009,-4.77813 2.28952,-7.14525 0.61943,-2.36712 1.17342,-4.35099 1.2311,-4.40861 0.0577,-0.0576 2.15719,-0.72135 4.6656,-1.47495 2.5084,-0.75361 5.79213,-2.05163 7.29718,-2.8845 2.31606,-1.28168 3.19697,-1.51494 5.73423,-1.51838 2.51589,-0.003 3.30458,0.19896 4.9063,1.25893 7.04879,4.66467 8.04016,15.57367 1.98862,21.88275 -1.23637,1.28899 -2.00558,1.71027 -3.1227,1.71027 -1.47332,0 -3.80553,0.8135 -3.80553,1.32741 1e-5,0.14787 -3.02718,0.26885 -6.72708,0.26885 -3.6999,0 -8.26187,0.15971 -10.1377,0.35491 -2.03119,0.21137 -3.23017,0.1885 -2.96448,-0.0566 z"
         id="path2612"
         transform="scale(0.26458333)" /><path
         style="fill:#008000;stroke:#000000;stroke-width:2.64595;stroke-linejoin:bevel;stroke-dasharray:none;paint-order:markers stroke fill"
         d="m 358.70205,535.11103 c -1.2542,-1.00941 -2.66386,-2.10512 -3.13257,-2.43491 -0.82736,-0.58213 -0.82961,-0.82341 -0.0774,-8.27205 0.8963,-8.87534 1.71814,-13.69183 3.09364,-18.13065 2.67005,-8.61636 7.81533,-11.46574 14.32233,-7.93149 1.4678,0.79724 4.45521,2.39309 6.63868,3.54634 l 3.96995,2.09682 -2.04967,1.08735 c -1.12732,0.59804 -3.22164,1.9726 -4.65406,3.05458 -1.43241,1.08198 -2.84431,1.9727 -3.13754,1.97939 -0.29324,0.007 -1.46807,-1.68102 -2.61074,-3.75046 -1.14267,-2.06943 -2.25982,-4.03685 -2.48255,-4.37204 -0.32178,-0.48423 -0.93315,-0.31134 -2.97617,0.84167 -1.41416,0.7981 -2.57119,1.62136 -2.57119,1.82947 0,0.2081 1.2314,2.5474 2.73644,5.19843 1.50504,2.65104 2.73644,4.94566 2.73644,5.09916 0,0.1535 -0.52557,0.9037 -1.16792,1.6671 -2.89312,3.43827 -4.91144,8.99494 -5.80182,15.97312 l -0.55548,4.35346 z"
         id="path2614"
         transform="scale(0.26458333)" /><path
         style="fill:#00ff00;stroke:#000000;stroke-width:2.64595;stroke-linejoin:bevel;stroke-dasharray:none;paint-order:markers stroke fill"
         d="m 460.64469,529.21245 c -0.0168,-1.23713 -3.5786,-7.96484 -5.51094,-10.40944 l -1.8096,-2.2893 4.11128,-5.57399 c 2.2612,-3.06569 4.11087,-5.7873 4.11039,-6.04803 -8.8e-4,-0.47111 -4.04488,-3.43853 -4.68602,-3.43853 -0.18446,0 -2.07757,2.35453 -4.20693,5.2323 l -3.87156,5.2323 -2.58644,-1.81181 c -1.42254,-0.99649 -4.81406,-2.66563 -7.53672,-3.70921 l -4.95029,-1.89741 2.63159,-1.77766 c 6.34747,-4.28778 14.61688,-7.62536 21.38845,-8.6325 9.64307,-1.43423 13.92913,4.09385 11.83112,15.25953 -0.93874,4.99603 -2.50547,9.43307 -5.10304,14.45208 -2.3077,4.45892 -3.79551,6.57146 -3.81129,5.41167 z"
         id="path2616"
         transform="scale(0.26458333)" /><path
         style="fill:#ffff00;stroke:#000000;stroke-width:2.64595;stroke-linejoin:bevel;stroke-dasharray:none;paint-order:markers stroke fill"
         d="m 390.57117,500.33137 c -0.40662,-1.05964 0.67436,-5.29887 1.87253,-7.34338 5.4269,-9.26031 21.3676,-11.3291 25.26466,-3.27885 0.78397,1.61947 0.9674,2.84546 0.9674,6.46588 v 4.4675 l -1.48224,-0.26288 c -0.81523,-0.14459 -2.58577,-0.40256 -3.93453,-0.57327 l -2.45229,-0.31038 0.31492,-5.11404 0.31493,-5.11403 -1.73926,-0.28739 c -0.9566,-0.15807 -2.37491,-0.28966 -3.15182,-0.29242 l -1.41256,-0.005 -0.29181,5.10027 c -0.19059,3.33099 -0.49163,5.2271 -0.86782,5.4659 -0.31679,0.2011 -1.63541,0.36878 -2.93026,0.37262 -1.29485,0.004 -3.96288,0.3148 -5.92896,0.69102 -4.36419,0.8351 -4.22973,0.83456 -4.54289,0.0185 z"
         id="path2618"
         transform="scale(0.26458333)" /><path
         style="fill:#ffff00;stroke:#000000;stroke-width:2.64595;stroke-linejoin:bevel;stroke-dasharray:none;paint-order:markers stroke fill"
         d="m 528.8022,730.82107 c -1.76435,-0.20623 -6.48471,-1.22104 -10.4897,-2.25513 -4.00499,-1.03409 -9.14373,-2.35124 -11.41944,-2.92701 -2.2757,-0.57576 -4.57108,-1.27881 -5.10084,-1.56233 -0.52976,-0.28352 -1.76748,-0.51549 -2.75048,-0.51549 h -1.78728 l -1.23934,-3.80989 c -0.68163,-2.09544 -2.35511,-6.12343 -3.71882,-8.9511 l -2.47949,-5.1412 1.42748,0.28549 c 2.37639,0.47528 7.26091,-0.54095 10.73092,-2.23259 3.5434,-1.72742 7.63384,-5.6497 9.30204,-8.91963 3.35798,-6.5822 2.7567,-14.53193 -1.54207,-20.38803 l -1.62188,-2.20944 3.51104,-0.58 c 10.63183,-1.75633 17.72628,-4.1426 22.48921,-7.56443 1.22609,-0.88086 2.22926,-1.55051 2.22926,-1.48813 0,0.0624 -0.30429,1.54999 -0.6762,3.30578 -1.38169,6.52305 -0.53128,13.15244 2.63268,20.52315 0.86142,2.00672 3.3411,7.19074 5.51041,11.52003 4.93897,9.8567 6.30743,13.7977 6.37278,18.3528 0.0424,2.95461 -0.14531,3.82438 -1.37796,6.38504 -1.85541,3.85435 -3.63227,5.63141 -6.8253,6.82607 -2.2134,0.82814 -8.04656,1.91106 -9.51304,1.76608 -0.25084,-0.0248 -1.89963,-0.21382 -3.66398,-0.42004 z"
         id="path3415"
         transform="scale(0.26458333)" /><path
         style="fill:#ffff00;stroke:#000000;stroke-width:2.64595;stroke-linejoin:bevel;stroke-dasharray:none;paint-order:markers stroke fill"
         d="m 537.72143,589.85007 c -3.4019,-3.6433 -7.85844,-6.14769 -11.7543,-6.60543 -1.31692,-0.15473 -2.39439,-0.34448 -2.39439,-0.42168 0,-0.0772 1.01098,-1.47605 2.24662,-3.10855 1.23564,-1.63251 2.96787,-4.2601 3.84941,-5.8391 1.80727,-3.23714 4.39367,-10.57252 4.39367,-12.46101 0,-1.20346 0.069,-1.23846 2.01103,-1.01957 10.69203,1.20514 17.83129,16.43734 12.64334,26.97557 -1.87937,3.81753 -4.05736,5.77305 -6.3469,5.69859 -1.47944,-0.0481 -2.06918,-0.45648 -4.64848,-3.21882 z"
         id="path3417"
         transform="scale(0.26458333)" /><path
         style="fill:#806600;stroke:#000000;stroke-width:2.64595;stroke-linejoin:bevel;stroke-dasharray:none;paint-order:markers stroke fill"
         d="m 534.24653,621.91791 -2.78039,-2.56967 2.86176,-0.92965 2.86175,-0.92966 0.2495,1.38573 c 0.13723,0.76215 0.10061,2.33684 -0.0814,3.49932 l -0.33087,2.11359 z"
         id="path3421"
         transform="scale(0.26458333)" /><path
         style="fill:#d45500;stroke:#000000;stroke-width:2.64595;stroke-linejoin:bevel;stroke-dasharray:none;paint-order:markers stroke fill"
         d="m 578.52963,731.92648 c -3.41507,-0.54246 -8.70383,-2.1278 -12.831,-3.84618 -2.47489,-1.03044 -5.78955,-2.40836 -7.36591,-3.06205 -2.81538,-1.16749 -2.85979,-1.21311 -2.50841,-2.57704 0.19674,-0.76368 0.35586,-3.64608 0.35361,-6.40532 -0.005,-6.48632 -0.61567,-8.33872 -7.28849,-22.11958 -6.99245,-14.44096 -7.29607,-15.3553 -7.26944,-21.89155 0.02,-4.91303 0.13171,-5.54781 1.76556,-10.03362 0.95931,-2.63383 1.93933,-5.03582 2.17782,-5.33775 0.23849,-0.30194 0.49797,-1.73857 0.57662,-3.19252 0.0787,-1.45395 0.61202,-3.77232 1.18526,-5.15194 1.57811,-3.79804 1.54354,-10.23601 -0.0735,-13.68222 -0.64733,-1.37962 -1.94865,-3.32646 -2.8918,-4.32631 l -1.71483,-1.81792 0.49742,-2.47683 c 0.63108,-3.14242 0.63875,-8.46192 0.0164,-11.36398 -0.41244,-1.92311 -0.34016,-2.65818 0.50669,-5.15328 0.79849,-2.35261 0.93651,-3.53146 0.72033,-6.15256 l -0.26741,-3.24234 1.79489,-0.80938 c 2.71197,-1.22293 6.6217,-5.37777 8.39384,-8.92006 2.65627,-5.30959 3.22303,-12.5462 1.4444,-18.4429 -0.5403,-1.79128 -0.56757,-2.38612 -0.12806,-2.79403 0.62418,-0.5793 17.94387,-4.5024 22.90601,-5.18846 8.72599,-1.20644 16.95403,0.45391 21.13856,4.2656 1.77345,1.61543 3.36365,5.26772 3.59821,8.26415 0.34392,4.3934 -0.81502,7.72721 -6.97909,20.07614 -6.71754,13.45774 -7.77087,16.76863 -7.35872,23.13031 0.29482,4.55057 1.80752,9.28439 6.01668,18.82848 3.19632,7.24753 4.1703,11.45465 3.45198,14.91088 -0.53234,2.56133 -2.23631,5.72895 -4.78991,8.90424 -0.85083,1.05797 -2.02399,3.1103 -2.60701,4.56074 -0.92171,2.29302 -1.05905,3.41087 -1.05239,8.56612 0.007,5.45116 0.12256,6.25974 1.43366,10.03362 0.78431,2.25757 2.99687,7.46302 4.91679,11.56767 1.91993,4.10465 4.11338,9.32137 4.87435,11.5927 1.21765,3.63444 1.36494,4.62644 1.22816,8.27155 -0.20864,5.55997 -1.75433,8.82783 -5.35298,11.3172 -3.99948,2.76663 -6.87389,3.64818 -12.36129,3.79106 -2.63383,0.0686 -5.40448,0.0269 -6.157,-0.0926 z"
         id="path3492"
         transform="scale(0.26458333)" /><path
         style="fill:#d45500;stroke:#000000;stroke-width:2.64595;stroke-linejoin:bevel;stroke-dasharray:none;paint-order:markers stroke fill"
         d="m 285.95828,711.42781 c -1.37962,-0.087 -6.40784,-0.3737 -11.17381,-0.63705 -16.5053,-0.912 -26.31635,-1.85006 -29.27558,-2.79913 -7.79368,-2.49954 -14.69258,-9.95501 -15.49702,-16.74723 -0.42935,-3.62515 -0.0965,-3.95352 2.34032,-2.30892 3.78796,2.55647 7.34464,3.7183 12.10337,3.95372 3.57629,0.17692 4.82056,0.0489 7.12709,-0.73345 l 2.79439,-0.9478 4.6812,0.90745 c 6.33843,1.22871 31.46812,3.60047 48.04405,4.53444 10.49188,0.59117 36.01393,0.58339 44.53062,-0.0135 20.36485,-1.42743 37.74589,-4.6684 53.81671,-10.03496 8.94546,-2.98718 18.53675,-7.21414 22.03707,-9.71192 11.54342,-8.23721 18.92758,-24.82124 17.20916,-38.64992 -0.26568,-2.13804 -1.10412,-5.80344 -1.8632,-8.14533 -1.17857,-3.6361 -1.78531,-4.72759 -4.15421,-7.47315 -5.71227,-6.62052 -12.48377,-10.85014 -22.96716,-14.34575 -10.28395,-3.42911 -17.22363,-4.1764 -43.32701,-4.66558 -12.04035,-0.22564 -24.66219,-0.63149 -28.04854,-0.90189 -11.73449,-0.93699 -19.62254,-3.07198 -41.27468,-11.17143 -8.27774,-3.09647 -17.65526,-6.45662 -20.83893,-7.46701 -10.34743,-3.28393 -23.24959,-5.41383 -29.46587,-4.86426 -1.68071,0.14859 -8.08405,0.46476 -14.22965,0.70259 -6.81693,0.26382 -12.48153,0.71306 -14.52765,1.15214 -1.84462,0.39585 -3.42939,0.64417 -3.52173,0.55184 -0.44201,-0.44201 3.28794,-5.0962 6.25276,-7.80214 4.13852,-3.77715 10.62614,-7.13533 17.04147,-8.82116 4.05107,-1.06455 5.42718,-1.19979 12.314,-1.21019 5.62479,-0.008 8.62968,0.19388 10.94577,0.73719 1.75588,0.4119 11.60708,3.53677 21.89154,6.94416 50.29977,16.66504 67.96757,20.63225 96.45961,21.65948 11.72977,0.42289 28.09464,1.51637 34.66161,2.31604 12.67453,1.54339 22.12561,5.158 28.32228,10.832 5.16018,4.72494 9.81846,14.89598 12.13907,26.50489 0.98275,4.91619 1.10559,19.12704 0.20922,24.20239 -1.09162,6.18079 -2.82051,12.00558 -4.40383,14.83682 -8.79834,15.73289 -25.12693,26.58973 -48.69844,32.37944 -8.29875,2.03837 -15.81127,3.14858 -30.68072,4.53405 -24.82851,2.31339 -31.41308,2.61081 -60.64437,2.73921 -15.30128,0.0672 -28.94929,0.051 -30.32891,-0.036 z"
         id="path4358"
         transform="scale(0.26458333)" /><path
         style="fill:#ffff00;stroke:#000000;stroke-width:2.64595;stroke-linejoin:bevel;stroke-dasharray:none;paint-order:markers stroke fill"
         d="m 317.42737,690.89602 c -7.90406,-0.30072 -26.58249,-1.54734 -33.29338,-2.22203 -3.63719,-0.36567 -9.87278,-0.98274 -13.85687,-1.37127 -3.98408,-0.38853 -9.19955,-1.13015 -11.58993,-1.64804 -4.70016,-1.01833 -5.31664,-0.98354 -9.44285,0.533 -2.41235,0.88662 -3.06799,0.9506 -5.5358,0.54022 -5.32309,-0.88519 -11.22972,-4.73584 -14.28679,-9.31384 -2.13518,-3.19746 -2.71167,-5.50875 -1.79264,-7.18721 0.90435,-1.65164 4.50776,-3.32578 7.14412,-3.31915 1.18642,0.003 10.46906,1.2453 20.62811,2.76069 32.44118,4.83915 48.23164,6.54313 68.96612,7.44225 17.5091,0.75926 36.44286,-0.20994 50.52521,-2.58634 2.13215,-0.3598 6.04011,-0.95574 8.68435,-1.32433 7.48688,-1.0436 12.63128,-3.10425 19.91848,-7.97858 8.30173,-5.55294 13.71125,-12.88941 14.16339,-19.20863 0.3968,-5.54593 -1.70834,-9.46873 -6.87251,-12.80649 -5.42749,-3.50796 -8.61183,-4.05099 -33.15726,-5.6543 -14.68337,-0.95912 -23.52096,-2.13696 -34.352,-4.57828 -13.78899,-3.10804 -19.0937,-4.65055 -42.2684,-12.29085 -11.66409,-3.84545 -23.97808,-7.77776 -27.36443,-8.73846 -5.96067,-1.69103 -6.38241,-1.74619 -13.22614,-1.72996 -6.14522,0.0146 -8.38053,0.24877 -17.10277,1.79189 -12.02897,2.12814 -20.52429,2.47104 -24.74727,0.99889 -2.43592,-0.84918 -7.40593,-4.86355 -7.40593,-5.98191 0,-1.04433 2.70761,-4.32531 4.90205,-5.94011 4.98913,-3.6713 10.08283,-4.6144 28.33989,-5.24709 11.55666,-0.4005 14.41969,-0.36756 18.55895,0.21348 9.55636,1.34148 18.05377,3.92552 39.41387,11.98565 13.11982,4.95071 18.55353,6.7297 26.10988,8.54835 8.89031,2.1397 13.36302,2.49249 37.51242,2.95877 32.69392,0.63127 40.35691,1.55632 51.76437,6.24886 10.16269,4.18048 16.0906,9.26576 19.04694,16.33947 4.43287,10.60668 0.68459,25.94407 -8.72657,35.70771 -3.58383,3.71806 -5.998,5.29158 -12.4081,8.0874 -17.46549,7.61774 -38.5139,12.4673 -62.21867,14.33521 -6.55973,0.51689 -28.82183,0.90927 -36.02984,0.63503 z"
         id="path4429"
         transform="scale(0.26458333)" /><path
         style="fill:#008080;stroke:#000000;stroke-width:2.64595;stroke-linejoin:bevel;stroke-dasharray:none;paint-order:markers stroke fill"
         d="m 394.1987,584.24412 c -4.95555,-0.66838 -12.50139,-2.12533 -16.51377,-3.18848 -6.40519,-1.69718 -12.43104,-7.83682 -22.3983,-22.82129 -10.51808,-15.81254 -18.2928,-22.03756 -30.14544,-24.1367 -2.11046,-0.37377 -5.1712,-1.13535 -6.80167,-1.6924 -2.84301,-0.97132 -2.90935,-1.02758 -1.61909,-1.37304 0.73997,-0.19812 3.36137,-0.60455 5.82534,-0.90318 12.69165,-1.5382 26.99008,3.86983 35.87376,13.56839 1.34966,1.47345 3.05154,3.32544 3.78196,4.11553 0.73042,0.79008 2.29418,3.36024 3.47504,5.71146 3.53818,7.04495 8.11265,12.04304 14.23296,15.55098 7.29368,4.18048 21.79923,5.58271 31.92516,3.08615 12.57371,-3.10006 22.2925,-11.77433 24.41516,-21.79115 1.83632,-8.66556 -0.61101,-16.92674 -6.85776,-23.14906 -6.04248,-6.01885 -12.72972,-8.86856 -21.66206,-9.23113 -8.56095,-0.34749 -13.5513,1.43259 -18.70008,6.6704 -2.42114,2.46301 -3.33844,3.85402 -4.99698,7.57754 -1.68789,3.78943 -2.06058,5.13922 -2.20367,7.98129 -0.15447,3.06783 -0.0369,3.67836 1.13984,5.92063 1.52655,2.90874 4.00702,4.96781 7.7574,6.43952 3.82975,1.50285 11.9449,1.49849 15.78667,-0.008 4.86064,-1.90663 7.27608,-4.87292 7.27608,-8.93541 0,-2.95901 -1.26138,-5.77419 -3.8767,-8.65208 -2.32098,-2.55402 -2.36696,-2.54713 -4.97477,0.74549 l -1.38952,1.75441 1.87322,2.12809 c 2.41813,2.74714 2.73278,3.97406 1.38663,5.40696 -3.57741,3.80799 -14.83455,3.03662 -17.92965,-1.22858 -1.27865,-1.76204 -1.0937,-4.19128 0.63073,-8.2847 4.21265,-9.99988 13.15561,-13.72101 24.60583,-10.2384 16.30114,4.95803 21.74921,22.07325 10.53954,33.11022 -3.44272,3.38969 -9.47739,6.49096 -15.32831,7.87736 -7.28943,1.72726 -19.21702,0.72171 -24.99425,-2.10712 -9.34768,-4.57711 -15.81147,-14.97602 -16.57412,-26.66434 -0.4954,-7.59246 1.95345,-14.50728 6.8725,-19.40588 3.38062,-3.36657 10.17807,-7.9616 13.78714,-9.32002 6.42412,-2.41797 9.11362,-2.87359 17.0321,-2.88535 8.89316,-0.0132 15.3861,1.13164 25.46288,4.48965 8.16507,2.72095 11.18092,4.23209 14.57367,7.30235 5.20606,4.71122 8.63014,10.50536 10.67823,18.06946 1.45048,5.357 1.44329,15.34829 -0.0149,20.65223 -2.78399,10.12663 -8.60055,17.50573 -17.20254,21.82376 -3.47815,1.74596 -11.14958,4.30707 -16.09426,5.37306 -5.75257,1.24017 -21.64466,1.60725 -28.65405,0.66187 z"
         id="path4500"
         transform="scale(0.26458333)" /><path
         style="fill:#008000;stroke:#000000;stroke-width:2.64595;stroke-linejoin:bevel;stroke-dasharray:none;paint-order:markers stroke fill"
         d="m 325.86474,576.62742 c -8.3414,-2.45331 -41.59256,-13.20248 -47.89874,-15.48433 l -3.83702,-1.38839 1.91084,-1.45745 c 4.40071,-3.35654 6.39187,-7.98154 5.40909,-12.56409 -0.50388,-2.34952 -2.1373,-5.51373 -2.84628,-5.51373 -0.23344,0 -1.41112,0.77993 -2.61707,1.73318 l -2.19264,1.73318 0.8995,1.85723 c 0.6576,1.35775 0.8157,2.30397 0.58787,3.51839 -0.61469,3.27656 -5.78378,6.81687 -7.47858,5.12208 -0.62517,-0.62517 -0.65779,-1.08188 -0.22354,-3.12934 1.30096,-6.13392 4.05254,-10.53233 8.04954,-12.86722 1.04126,-0.60827 3.53507,-1.57988 5.5418,-2.15914 3.41742,-0.98648 4.44322,-1.0531 16.19062,-1.05152 12.38326,0.002 12.56082,0.0151 14.02658,1.05887 1.91112,1.36095 7.91102,3.55024 10.83577,3.95383 1.25072,0.17259 3.09497,0.51535 4.09833,0.76169 2.15634,0.52942 7.9813,3.12138 7.9813,3.55149 0,0.1645 -0.7363,1.00636 -1.63623,1.87079 -5.48636,5.27003 -5.41661,13.75912 0.20486,24.93537 1.38109,2.7458 1.88744,4.30578 1.88744,5.81494 0,1.3667 -0.19232,2.04931 -0.57009,2.02348 -0.31355,-0.0214 -4.05906,-1.06512 -8.32335,-2.31931 z"
         id="path5228"
         transform="scale(0.26458333)" /><path
         style="fill:#008000;stroke:#000000;stroke-width:2.64595;stroke-linejoin:bevel;stroke-dasharray:none;paint-order:markers stroke fill"
         d="m 233.50979,561.22945 c 0,-1.27707 2.16952,-4.56801 4.54151,-6.889 2.82031,-2.75968 7.92428,-5.63258 12.89089,-7.25597 3.20722,-1.04832 11.36753,-2.84513 11.64791,-2.56475 0.0893,0.0893 -0.17042,1.30727 -0.57721,2.70656 -0.81705,2.81054 -0.9851,7.99366 -0.3007,9.2745 0.41279,0.77255 0.0414,0.82506 -6.24251,0.88284 -7.8607,0.0723 -14.91651,1.41744 -21.16176,4.03442 -0.49057,0.20557 -0.79813,0.13289 -0.79813,-0.1886 z"
         id="path5230"
         transform="scale(0.26458333)" /><path
         style="fill:#ffdd55;stroke:#000000;stroke-width:2.64595;stroke-linejoin:bevel;stroke-dasharray:none;paint-order:markers stroke fill"
         d="m 370.1039,585.97192 c -5.86575,-0.74725 -11.89163,-1.69448 -17.23507,-2.70926 l -6.2893,-1.19441 2.92025,-2.79548 c 1.60614,-1.53751 3.75005,-4.08018 4.76424,-5.65039 l 1.84399,-2.85492 2.28614,2.87303 c 3.05689,3.84164 9.02803,9.49866 11.64477,11.03217 1.96253,1.15012 2.60428,1.70751 1.77526,1.54189 -0.18813,-0.0376 -0.95776,-0.14677 -1.71028,-0.24263 z"
         id="path5232"
         transform="scale(0.26458333)" /><path
         style="fill:#ffdd55;stroke:#000000;stroke-width:2.64595;stroke-linejoin:bevel;stroke-dasharray:none;paint-order:markers stroke fill"
         d="m 229.09316,638.74951 c -3.18671,-1.61289 -6.80568,-5.26578 -9.20413,-9.2904 -3.22969,-5.41944 -5.32669,-14.42187 -4.44909,-19.09991 l 0.29848,-1.59105 2.38664,0.68168 c 4.05922,1.15943 13.41659,0.92802 22.15026,-0.54779 4.09731,-0.69235 7.57855,-1.12992 7.73609,-0.97237 0.15755,0.15754 0.28646,3.81734 0.28646,8.13287 2e-5,11.21442 -1.43688,16.23076 -5.80167,20.25408 -2.78994,2.57167 -4.58735,3.41086 -7.82561,3.65365 -2.4149,0.18106 -3.10707,0.0296 -5.57743,-1.22076 z"
         id="path5303"
         transform="scale(0.26458333)" /><path
         style="fill:#ffdd55;stroke:#000000;stroke-width:2.64595;stroke-linejoin:bevel;stroke-dasharray:none;paint-order:markers stroke fill"
         d="m 295.99191,637.03595 c -3.20071,-1.5389 -7.5836,-5.94265 -9.43347,-9.47838 -0.78744,-1.50505 -1.68335,-4.02719 -1.99093,-5.60478 -0.48538,-2.48952 -0.45255,-3.26245 0.24857,-5.8526 0.4443,-1.64135 1.08146,-3.08928 1.41592,-3.21762 0.33446,-0.12835 4.99691,1.2295 10.361,3.01744 l 9.75288,3.2508 0.79285,4.94487 c 0.73366,4.5757 0.73853,5.15693 0.0652,7.78537 -0.76649,2.99192 -2.04109,5.17949 -3.46045,5.93911 -1.57413,0.84244 -5.11293,0.48443 -7.75152,-0.78421 z"
         id="path5305"
         transform="scale(0.26458333)" /><path
         style="fill:#ffdd55;stroke:#000000;stroke-width:2.64595;stroke-linejoin:bevel;stroke-dasharray:none;paint-order:markers stroke fill"
         d="m 358.44283,643.70653 c -2.62927,-0.39764 -6.31711,-2.25194 -8.62449,-4.33651 -2.13803,-1.93159 -4.11439,-5.70081 -4.11439,-7.84678 0,-1.3857 0.1124,-1.52807 1.02617,-1.29976 2.52331,0.63045 9.44201,1.69012 14.13949,2.1656 2.82129,0.28557 5.38617,0.59157 5.69972,0.68 0.79545,0.22434 0.74242,5.27914 -0.0759,7.23773 -1.12786,2.69937 -4.17444,3.98592 -8.05057,3.39972 z"
         id="path5307"
         transform="scale(0.26458333)" /><path
         style="fill:#ffdd55;stroke:#000000;stroke-width:2.64595;stroke-linejoin:bevel;stroke-dasharray:none;paint-order:markers stroke fill"
         d="m 370.13837,667.12197 c 1.17958,-6.63985 8.9726,-13.67738 15.68317,-14.16278 2.2571,-0.16326 2.74223,-0.04 3.99659,1.01548 1.90409,1.60219 2.95132,4.46444 2.77441,7.58289 -0.13295,2.34359 -0.23411,2.53145 -1.76699,3.28132 -0.89427,0.43748 -2.94661,1.08706 -4.56073,1.44351 -2.6111,0.57663 -15.14119,2.56938 -16.06757,2.55535 -0.19949,-0.003 -0.22599,-0.77512 -0.0589,-1.71577 z"
         id="path5309"
         transform="scale(0.26458333)" /><path
         style="fill:#ffdd55;stroke:#000000;stroke-width:2.64595;stroke-linejoin:bevel;stroke-dasharray:none;paint-order:markers stroke fill"
         d="m 317.9428,670.611 c -3.3537,-0.20231 -6.22697,-0.49716 -6.38503,-0.65523 -0.15807,-0.15806 -0.28739,-2.06607 -0.28739,-4.24003 0,-3.39301 0.17836,-4.31583 1.25975,-6.51784 3.44604,-7.0171 13.4092,-11.72694 19.71377,-9.3192 2.5449,0.97191 4.98592,3.73761 5.65937,6.41213 0.27693,1.09976 0.5035,4.88456 0.5035,8.41068 v 6.41111 l -7.18316,-0.0669 c -3.95074,-0.0368 -9.9271,-0.23241 -13.28081,-0.43473 z"
         id="path5311"
         transform="scale(0.26458333)" /><path
         style="fill:#ffdd55;stroke:#000000;stroke-width:2.64595;stroke-linejoin:bevel;stroke-dasharray:none;paint-order:markers stroke fill"
         d="m 259.7911,664.04715 c -8.80517,-1.30946 -13.29902,-2.16352 -13.56121,-2.57732 -0.63404,-1.00064 -0.4638,-4.61977 0.3264,-6.93885 2.64101,-7.75095 15.37676,-13.45639 22.29922,-9.98975 3.8824,1.94423 4.45484,3.36438 4.82773,11.97703 0.16833,3.88802 0.45591,7.63353 0.63907,8.32334 0.41269,1.55431 1.75654,1.62778 -14.53121,-0.79445 z"
         id="path5313"
         transform="scale(0.26458333)" /><path
         style="fill:#008000;stroke:#000000;stroke-width:2.64595;stroke-linejoin:bevel;stroke-dasharray:none;paint-order:markers stroke fill"
         d="m 362.80672,584.71098 c -3.51177,-0.56824 -8.47898,-1.41635 -11.03824,-1.88468 l -4.65321,-0.8515 3.09692,-3.20482 c 1.7033,-1.76266 3.67059,-4.07707 4.37176,-5.14314 0.70116,-1.06607 1.40773,-1.93831 1.57016,-1.93831 0.16242,0 1.58509,1.53358 3.16148,3.40795 2.9732,3.53521 7.21508,7.46906 10.28186,9.53521 2.21393,1.49157 1.95573,1.49458 -6.79073,0.0793 z"
         id="path5315"
         transform="scale(0.26458333)" /><path
         style="fill:#4d4d4d;stroke:#000000;stroke-width:2.64595;stroke-linejoin:bevel;stroke-dasharray:none;paint-order:markers stroke fill"
         d="m 229.17709,638.4175 c -7.3644,-3.82226 -13.38977,-15.0979 -13.54362,-25.345 -0.0292,-1.94661 0.0418,-3.63422 0.15782,-3.75025 0.11602,-0.11602 1.02034,0.0372 2.0096,0.34052 2.997,0.91888 14.94003,0.64335 22.6668,-0.52293 3.70142,-0.5587 6.93385,-0.88975 7.18316,-0.73566 0.60032,0.37102 0.58636,10.819 -0.0209,15.6622 -0.63385,5.05511 -1.89226,8.22592 -4.34918,10.95859 -4.09553,4.55522 -9.40347,5.83201 -14.10365,3.39253 z"
         id="path5317"
         transform="scale(0.26458333)" /><path
         style="fill:#4d4d4d;stroke:#000000;stroke-width:2.64595;stroke-linejoin:bevel;stroke-dasharray:none;paint-order:markers stroke fill"
         d="m 268.39944,665.10794 c -1.50504,-0.23191 -6.02017,-0.92475 -10.03362,-1.53964 -4.01345,-0.61489 -8.37466,-1.35657 -9.69157,-1.64818 l -2.39439,-0.5302 v -2.80236 c 0,-2.08908 0.29579,-3.39593 1.1621,-5.13439 3.24711,-6.5161 13.57374,-11.29173 19.86326,-9.18592 2.18501,0.73157 4.48929,2.54924 5.03594,3.97247 0.46769,1.21767 1.00562,6.03258 1.4981,13.40937 l 0.26642,3.99064 -1.4849,-0.0551 c -0.81669,-0.0303 -2.7163,-0.24481 -4.22134,-0.47672 z"
         id="path5388"
         transform="scale(0.26458333)" /><path
         style="fill:#4d4d4d;stroke:#000000;stroke-width:2.64595;stroke-linejoin:bevel;stroke-dasharray:none;paint-order:markers stroke fill"
         d="m 299.25136,637.73642 c -6.77565,-1.1664 -14.6613,-10.88167 -14.6613,-18.06298 0,-2.51717 1.26404,-6.4822 2.0665,-6.4822 1.16123,0 19.12832,6.01915 19.44087,6.51288 0.16497,0.2606 0.55712,2.49188 0.87145,4.95841 0.68353,5.36355 0.17714,8.45405 -1.84191,11.24127 -1.45084,2.00283 -2.67283,2.38397 -5.87561,1.83262 z"
         id="path5390"
         transform="scale(0.26458333)" /><path
         style="fill:#4d4d4d;stroke:#000000;stroke-width:2.64595;stroke-linejoin:bevel;stroke-dasharray:none;paint-order:markers stroke fill"
         d="m 325.86474,670.64573 c -6.27101,-0.17362 -12.06885,-0.46376 -12.88409,-0.64474 l -1.48224,-0.32907 v -3.76754 c 0,-3.29102 0.17673,-4.1212 1.3972,-6.56358 2.65845,-5.32002 8.76721,-9.2674 14.83507,-9.58615 3.78853,-0.19901 6.24132,0.77692 8.10997,3.22685 1.76775,2.31764 1.97174,3.27681 2.32829,10.94795 0.27519,5.92073 0.22523,7.16988 -0.28424,7.10756 -0.33997,-0.0416 -5.74895,-0.21766 -12.01996,-0.39128 z"
         id="path5392"
         transform="scale(0.26458333)" /><path
         style="fill:#4d4d4d;stroke:#000000;stroke-width:2.64595;stroke-linejoin:bevel;stroke-dasharray:none;paint-order:markers stroke fill"
         d="m 357.76272,643.34038 c -2.05036,-0.51959 -5.4129,-2.28494 -7.27358,-3.81867 -2.11239,-1.74121 -4.31936,-5.60646 -4.32484,-7.57443 -0.004,-1.47253 0.0559,-1.52722 1.38374,-1.26165 1.72358,0.34472 12.96927,1.93899 16.51288,2.341 l 2.62243,0.2975 v 2.95431 c 0,3.43762 -0.81028,5.3335 -2.69629,6.3088 -1.68334,0.87049 -4.44339,1.20445 -6.22434,0.75314 z"
         id="path5394"
         transform="scale(0.26458333)" /><path
         style="fill:#ff6600;stroke:#000000;stroke-width:2.64595;stroke-linejoin:bevel;stroke-dasharray:none;paint-order:markers stroke fill"
         d="m 370.51218,666.90488 c 0.83168,-4.15842 5.15388,-9.42216 9.78378,-11.91507 3.07747,-1.65702 7.2555,-2.14073 8.94257,-1.03531 1.82239,1.19408 2.98495,3.95723 2.98495,7.09461 0,2.54153 -0.0936,2.79129 -1.27443,3.40193 -1.8431,0.95311 -5.87386,1.90145 -12.66346,2.97942 -8.15029,1.294 -8.1375,1.29487 -7.77341,-0.52558 z"
         id="path5396"
         transform="scale(0.26458333)" /><path
         style="fill:#4d4d4d;stroke:#000000;stroke-width:6.98649;stroke-linejoin:bevel;stroke-dasharray:none;paint-order:markers stroke fill"
         d="m 370.90587,666.49415 c 0,-0.8077 2.36728,-3.83582 5.26063,-6.72917 7.55066,-7.55066 15.21145,-7.11833 15.21145,0.85846 0,2.80157 -0.67736,3.39286 -5.11802,4.4677 -10.26443,2.48446 -15.35406,2.94953 -15.35406,1.40301 z"
         id="path5426"
         transform="scale(0.26458333)" /><path
         style="fill:#00ff00;stroke:#000000;stroke-width:6.98649;stroke-linejoin:bevel;stroke-dasharray:none;paint-order:markers stroke fill"
         d="m 391.37795,497.97204 c 0,-3.74057 6.71223,-10.43435 11.73637,-11.70409 5.27271,-1.33257 11.10524,-0.0738 13.25021,2.85959 0.82868,1.13329 1.5067,4.04944 1.5067,6.48033 0,4.06509 -0.24161,4.37361 -3.0106,3.84428 -2.6659,-0.50961 -3.0106,-1.17989 -3.0106,-5.8542 0,-5.00854 -0.17678,-5.27869 -3.45416,-5.27869 -3.13099,0 -3.51586,0.45997 -4.11359,4.91641 -0.36269,2.70403 -0.84047,5.06627 -1.06174,5.24943 -0.22127,0.18316 -2.97637,0.66994 -6.12245,1.08175 -5.12097,0.6703 -5.72014,0.50325 -5.72014,-1.59481 z"
         id="path5430"
         transform="scale(0.26458333)" /></g><path
       style="fill:#d45500;stroke:#000000;stroke-width:4.97438;stroke-linejoin:bevel;stroke-dasharray:none;paint-order:markers stroke fill"
       d=""
       id="path8642"
       transform="scale(0.26458333)" /><path
       style="fill:#d45500;stroke:#000000;stroke-width:4.97438;stroke-linejoin:bevel;stroke-dasharray:none;paint-order:markers stroke fill"
       d=""
       id="path8644"
       transform="scale(0.26458333)" /><path
       style="fill:#d45500;stroke:#000000;stroke-width:4.97438;stroke-linejoin:bevel;stroke-dasharray:none;paint-order:markers stroke fill"
       d=""
       id="path8648"
       transform="scale(0.26458333)" /></g></svg>
